<svg width="32" height="32" viewBox="0 0 32 32" fill="none" xmlns="http://www.w3.org/2000/svg">
<path fill-rule="evenodd" clip-rule="evenodd" d="M15.9974 5.33317C12.3155 5.33317 9.33073 8.31794 9.33073 11.9998C9.33073 15.717 11.4797 21.1562 15.9974 26.0736C20.5151 21.1562 22.6641 15.717 22.6641 11.9998C22.6641 8.31794 19.6793 5.33317 15.9974 5.33317ZM6.66406 11.9998C6.66406 6.84518 10.8427 2.6665 15.9974 2.6665C21.1521 2.6665 25.3307 6.84518 25.3307 11.9998C25.3307 16.8694 22.4448 23.438 16.9402 28.9426C16.4195 29.4633 15.5753 29.4633 15.0546 28.9426C9.54999 23.438 6.66406 16.8694 6.66406 11.9998Z" fill="#C2C2C2"/>
<path fill-rule="evenodd" clip-rule="evenodd" d="M15.9974 13.3332C16.7338 13.3332 17.3307 12.7362 17.3307 11.9998C17.3307 11.2635 16.7338 10.6665 15.9974 10.6665C15.261 10.6665 14.6641 11.2635 14.6641 11.9998C14.6641 12.7362 15.261 13.3332 15.9974 13.3332ZM15.9974 15.9998C18.2065 15.9998 19.9974 14.209 19.9974 11.9998C19.9974 9.7907 18.2065 7.99984 15.9974 7.99984C13.7883 7.99984 11.9974 9.7907 11.9974 11.9998C11.9974 14.209 13.7883 15.9998 15.9974 15.9998Z" fill="#C2C2C2"/>
</svg>
