<svg width="32" height="32" viewBox="0 0 32 32" fill="none" xmlns="http://www.w3.org/2000/svg">
<path fill-rule="evenodd" clip-rule="evenodd" d="M6.66406 5.3335C4.45492 5.3335 2.66406 7.12436 2.66406 9.3335V22.6668C2.66406 24.876 4.45492 26.6668 6.66406 26.6668H25.3307C27.5399 26.6668 29.3307 24.876 29.3307 22.6668V9.3335C29.3307 7.12436 27.5399 5.3335 25.3307 5.3335H6.66406ZM6.43142 8.02039C6.50696 8.0071 6.5847 8.00016 6.66406 8.00016H25.3307C25.4101 8.00016 25.4878 8.0071 25.5634 8.02039L15.9974 14.3977L6.43142 8.02039ZM5.33073 10.4915V22.6668C5.33073 23.4032 5.92768 24.0002 6.66406 24.0002H25.3307C26.0671 24.0002 26.6641 23.4032 26.6641 22.6668V10.4916L16.737 17.1096C16.2891 17.4082 15.7057 17.4082 15.2578 17.1096L5.33073 10.4915Z" fill="#C2C2C2"/>
</svg>
