<svg width="603" height="851" viewBox="0 0 603 851" fill="none" xmlns="http://www.w3.org/2000/svg">
<g filter="url(#filter0_d_705_263)">
<path d="M598.985 821.275V799.782C589.733 799.782 582.232 792.899 582.232 784.408C582.232 775.916 589.733 769.033 598.985 769.033V747.541C589.733 747.541 582.232 740.657 582.232 732.165C582.232 723.674 589.733 716.791 598.985 716.791V695.298C589.733 695.298 582.232 688.415 582.232 679.923C582.232 671.432 589.733 664.548 598.985 664.548V643.056C589.733 643.056 582.232 636.173 582.232 627.681C582.232 619.19 589.733 612.306 598.985 612.306V590.814C589.733 590.814 582.232 583.931 582.232 575.439C582.232 566.948 589.733 560.064 598.985 560.064V538.572C589.733 538.572 582.232 531.689 582.232 523.197C582.232 514.706 589.733 507.822 598.985 507.822V486.33C589.733 486.33 582.232 479.446 582.232 470.955C582.232 462.463 589.733 455.58 598.985 455.58V434.088C589.733 434.088 582.232 427.204 582.232 418.713C582.232 410.221 589.733 403.338 598.985 403.338V381.845C589.733 381.845 582.232 374.962 582.232 366.471C582.232 357.979 589.733 351.096 598.985 351.096V329.603C589.733 329.603 582.232 322.72 582.232 314.228C582.232 305.737 589.733 298.853 598.985 298.853V277.361C589.733 277.361 582.232 270.478 582.232 261.986C582.232 253.495 589.733 246.611 598.985 246.611V225.119C589.733 225.119 582.232 218.236 582.232 209.744C582.232 201.253 589.733 194.369 598.985 194.369V172.877C589.733 172.877 582.232 165.994 582.232 157.502C582.232 149.011 589.733 142.127 598.985 142.127V120.635C589.733 120.635 582.232 113.752 582.232 105.26C582.232 96.7684 589.733 89.885 598.985 89.885V68.3928C589.733 68.3928 582.232 61.5093 582.232 53.0178C582.232 44.5263 589.733 37.6429 598.985 37.6429V16.1498C592.999 3.7749 590.499 2.2749 582.232 0.774902H561.926C561.926 9.26644 554.425 16.1498 545.173 16.1498C535.921 16.1498 528.42 9.26644 528.42 0.774902H508.114C508.114 9.26644 500.614 16.1498 491.361 16.1498C482.109 16.1498 474.609 9.26644 474.609 0.774902H454.302C454.302 9.26644 446.802 16.1498 437.549 16.1498C428.297 16.1498 420.797 9.26644 420.797 0.774902H400.49C400.49 9.26644 392.99 16.1498 383.738 16.1498C374.485 16.1498 366.985 9.26644 366.985 0.774902H346.679C346.679 9.26644 339.178 16.1498 329.926 16.1498C320.674 16.1498 313.173 9.26644 313.173 0.774902H292.867C292.867 9.26644 285.366 16.1498 276.114 16.1498C266.862 16.1498 259.361 9.26644 259.361 0.774902H239.055C239.055 9.26644 231.554 16.1498 222.302 16.1498C213.05 16.1498 205.549 9.26644 205.549 0.774902H185.243C185.243 9.26644 177.742 16.1498 168.49 16.1498C159.238 16.1498 151.738 9.26644 151.738 0.774902H131.431C131.431 9.26644 123.931 16.1498 114.678 16.1498C105.426 16.1498 97.9255 9.26644 97.9255 0.774902H77.6226C77.6226 9.26644 70.1219 16.1498 60.8698 16.1498C51.6176 16.1498 44.117 9.26644 44.117 0.774902H23.8108C12.4995 3.2749 11.9995 3.7749 7.05794 16.1498V37.6429C16.3101 37.6429 23.8108 44.5263 23.8108 53.0178C23.8108 61.5093 16.3101 68.3928 7.05794 68.3928V89.885C16.3101 89.885 23.8108 96.7684 23.8108 105.26C23.8108 113.752 16.3101 120.635 7.05794 120.635V142.127C16.3101 142.127 23.8108 149.011 23.8108 157.502C23.8108 165.994 16.3101 172.877 7.05794 172.877V194.369C16.3101 194.369 23.8108 201.253 23.8108 209.744C23.8108 218.236 16.3101 225.119 7.05794 225.119V246.611C16.3101 246.611 23.8108 253.495 23.8108 261.986C23.8108 270.478 16.3101 277.361 7.05794 277.361V298.853C16.3101 298.853 23.8108 305.737 23.8108 314.228C23.8108 322.72 16.3101 329.603 7.05794 329.603V351.096C16.3101 351.096 23.8108 357.979 23.8108 366.471C23.8108 374.962 16.3101 381.845 7.05794 381.845V403.338C16.3101 403.338 23.8108 410.221 23.8108 418.713C23.8108 427.204 16.3101 434.088 7.05794 434.088V455.58C16.3101 455.58 23.8108 462.463 23.8108 470.955C23.8108 479.446 16.3101 486.33 7.05794 486.33V507.822C16.3101 507.822 23.8108 514.706 23.8108 523.197C23.8108 531.689 16.3101 538.572 7.05794 538.572V560.064C16.3101 560.064 23.8108 566.948 23.8108 575.439C23.8108 583.931 16.3101 590.814 7.05794 590.814V612.306C16.3101 612.306 23.8108 619.19 23.8108 627.681C23.8108 636.173 16.3101 643.056 7.05794 643.056V664.548C16.3101 664.548 23.8108 671.432 23.8108 679.923C23.8108 688.415 16.3101 695.298 7.05794 695.298V716.791C16.3101 716.791 23.8108 723.674 23.8108 732.165C23.8108 740.657 16.3101 747.541 7.05794 747.541V769.033C16.3101 769.033 23.8108 775.916 23.8108 784.408C23.8108 792.899 16.3101 799.782 7.05794 799.782L5.05809 819.907C3.49947 825.275 5.05862 839.775 25.248 842.775L38.2871 841.55L44.117 836.65C45.0172 828.482 51.6176 821.275 60.8698 821.275C70.1219 821.275 77.6226 828.158 77.6226 836.65H97.9289C97.9289 828.158 105.43 821.275 114.682 821.275C123.934 821.275 131.435 828.158 131.435 836.65H151.741C151.741 828.158 159.242 821.275 168.494 821.275C177.746 821.275 185.246 828.158 185.246 836.65H205.553C205.553 828.158 213.053 821.275 222.305 821.275C231.557 821.275 239.058 828.158 239.058 836.65H259.364C259.364 828.158 266.865 821.275 276.117 821.275C285.369 821.275 292.87 828.158 292.87 836.65H313.176C313.176 828.158 320.677 821.275 329.929 821.275C339.181 821.275 346.682 828.158 346.682 836.65H366.988C366.988 828.158 374.489 821.275 383.741 821.275C392.993 821.275 400.494 828.158 400.494 836.65H420.8C420.8 828.158 428.301 821.275 437.553 821.275C446.805 821.275 454.306 828.158 454.306 836.65H474.612C474.612 828.158 482.113 821.275 491.365 821.275C500.617 821.275 508.118 828.158 508.118 836.65H528.424C528.424 828.158 535.924 821.275 545.177 821.275C554.429 821.275 561.929 828.158 561.929 836.65H582.236C593.999 834.775 597.499 830.275 598.985 821.275Z" fill="white"/>
</g>
<defs>
<filter id="filter0_d_705_263" x="0.609375" y="0.774902" width="602.376" height="850" filterUnits="userSpaceOnUse" color-interpolation-filters="sRGB">
<feFlood flood-opacity="0" result="BackgroundImageFix"/>
<feColorMatrix in="SourceAlpha" type="matrix" values="0 0 0 0 0 0 0 0 0 0 0 0 0 0 0 0 0 0 127 0" result="hardAlpha"/>
<feOffset dy="4"/>
<feGaussianBlur stdDeviation="2"/>
<feComposite in2="hardAlpha" operator="out"/>
<feColorMatrix type="matrix" values="0 0 0 0 0 0 0 0 0 0 0 0 0 0 0 0 0 0 0.25 0"/>
<feBlend mode="normal" in2="BackgroundImageFix" result="effect1_dropShadow_705_263"/>
<feBlend mode="normal" in="SourceGraphic" in2="effect1_dropShadow_705_263" result="shape"/>
</filter>
</defs>
</svg>
