<svg version="1.1" id="Layer_1" xmlns="http://www.w3.org/2000/svg" xmlns:xlink="http://www.w3.org/1999/xlink" x="0px" y="0px"
	 width="100%" viewBox="0 0 7163 1970" enable-background="new 0 0 7163 1970" xml:space="preserve">
<path fill="#FFFFFF" opacity="1.000000" stroke="none" 
	d="
M4922.000000,1972.000000 
	C3281.333252,1972.000000 1641.666626,1972.000000 2.000000,1972.000000 
	C2.000000,1315.333374 2.000000,658.666687 2.000000,2.000000 
	C2390.000000,2.000000 4778.000000,2.000000 7166.000000,2.000000 
	C7166.000000,658.666687 7166.000000,1315.333374 7166.000000,1972.000000 
	C6418.333496,1972.000000 5670.666504,1972.000000 4922.000000,1972.000000 
M773.624329,1136.791138 
	C745.460571,1153.281250 717.275696,1169.735596 689.156433,1186.301392 
	C685.073792,1188.706421 681.108459,1190.415039 676.137573,1190.410645 
	C549.808655,1190.297729 423.479706,1190.322998 297.150757,1190.276978 
	C295.417206,1190.276367 293.683838,1189.673340 291.793427,1189.322266 
	C314.455627,1159.534912 336.093536,1129.968994 359.015869,1101.434814 
	C370.642181,1086.962158 384.577332,1074.343140 397.485535,1060.902344 
	C401.326965,1056.902466 406.073700,1055.029053 411.569855,1054.184937 
	C497.787048,1040.944092 584.078125,1028.148682 670.161682,1014.084778 
	C737.826050,1003.030029 805.182922,990.102783 872.791199,978.687256 
	C884.915466,976.640198 893.086487,971.708679 899.770142,961.413391 
	C919.358826,931.239502 939.606934,901.487854 959.915771,871.789001 
	C980.834961,841.197571 1002.774170,811.229553 1031.276733,787.203613 
	C1084.134155,742.647827 1143.585938,709.820007 1210.317505,690.997375 
	C1234.859253,684.074890 1259.906982,681.077271 1285.413574,685.960510 
	C1317.481934,692.099915 1350.365723,721.466125 1345.845825,765.598450 
	C1344.441650,779.308289 1340.303711,792.275085 1334.832397,804.859741 
	C1325.348999,826.672913 1312.752319,846.683105 1298.807373,865.821167 
	C1282.914551,887.632202 1266.310059,908.924805 1250.428711,930.744080 
	C1242.601440,941.497742 1235.458008,952.777100 1228.487183,964.115051 
	C1224.624512,970.397583 1222.417969,977.407959 1224.727539,985.858521 
	C1385.158813,1015.278137 1545.771484,1044.731079 1707.212646,1074.335815 
	C1705.973511,1076.150146 1705.363525,1077.269165 1704.545776,1078.206909 
	C1690.745117,1094.029663 1676.999390,1109.901367 1663.077393,1125.616821 
	C1646.062988,1144.823120 1628.849121,1163.852783 1611.824463,1183.050049 
	C1607.099121,1188.378174 1601.747192,1190.810059 1594.348389,1190.492065 
	C1580.707275,1189.905640 1567.023193,1190.324585 1553.356934,1190.324585 
	C1364.030151,1190.324585 1174.703369,1190.323853 985.376526,1190.331177 
	C981.617310,1190.331299 977.858032,1190.425781 972.721252,1190.494751 
	C979.243591,1199.624146 987.095215,1203.343994 995.402710,1205.620850 
	C1005.329163,1208.341431 1015.560364,1209.945557 1025.652466,1212.067627 
	C1034.961182,1214.025024 1044.478394,1215.402466 1053.148071,1221.283569 
	C1050.921021,1224.732788 1049.050537,1227.847046 1046.971924,1230.815674 
	C1025.186279,1261.930054 1003.366699,1293.020874 981.557312,1324.118652 
	C942.518188,1379.784180 904.507507,1436.112671 872.671387,1496.318481 
	C845.637268,1547.442993 823.062683,1600.270142 813.030090,1657.696533 
	C806.770264,1693.527954 806.409119,1729.245605 815.159912,1764.798706 
	C827.577209,1815.247803 856.023560,1855.320312 894.875732,1888.793457 
	C899.435730,1892.721924 903.950745,1894.471313 910.083252,1894.467529 
	C1164.074463,1894.313599 1418.065674,1894.322632 1672.056885,1894.359253 
	C1693.155273,1894.362305 1713.971558,1891.913208 1734.451904,1887.108032 
	C1870.417114,1855.206787 1965.266724,1736.308960 1965.344727,1596.613647 
	C1965.559570,1211.960327 1965.437012,827.306824 1965.367188,442.653412 
	C1965.363403,422.300385 1963.525024,402.039124 1959.381958,382.076355 
	C1930.503540,242.923676 1809.850342,144.125854 1667.726440,144.055801 
	C1282.739868,143.866058 897.752991,143.910812 512.766541,144.228607 
	C493.569061,144.244446 474.087250,146.211594 455.224304,149.815964 
	C315.511902,176.512573 214.595108,298.992889 214.589569,441.063354 
	C214.574570,826.383362 214.551193,1211.703369 214.627090,1597.023438 
	C214.636993,1647.258911 225.660431,1695.152100 250.657028,1738.782471 
	C306.475739,1836.211304 390.733307,1888.599731 503.265137,1894.187378 
	C522.217957,1895.128540 541.257263,1894.352539 560.256409,1894.291748 
	C561.956177,1894.286377 563.654114,1893.701660 564.856262,1893.478271 
	C554.109619,1884.544678 542.750061,1876.704834 533.332886,1866.983521 
	C500.346008,1832.930786 483.176086,1791.431641 478.010284,1744.616699 
	C473.751984,1706.026367 478.286102,1668.158203 487.193420,1630.657837 
	C501.158966,1571.861816 525.400330,1517.233032 554.984497,1464.823242 
	C582.050720,1416.874146 613.517578,1371.808716 645.500488,1327.075806 
	C681.542603,1276.665649 717.505920,1226.197510 753.171509,1175.520996 
	C761.567322,1163.591675 768.632812,1150.725952 777.321289,1137.729736 
	C777.333679,1137.153198 777.346130,1136.576538 777.358521,1135.999878 
	C776.576721,1136.141235 775.794922,1136.282593 773.624329,1136.791138 
M5221.430176,1131.152466 
	C5219.616699,1112.280151 5219.564453,1093.037354 5215.683594,1074.600342 
	C5199.096680,995.789307 5153.783691,939.980774 5078.265625,910.694580 
	C5035.036621,893.929993 4989.760742,891.470886 4944.422852,900.047119 
	C4862.647949,915.515991 4805.690430,962.107483 4776.199219,1040.213135 
	C4758.943359,1085.911865 4757.962891,1133.449341 4766.890137,1181.086182 
	C4775.597656,1227.546265 4796.490723,1267.949829 4830.957031,1300.636230 
	C4875.044922,1342.447388 4928.357910,1359.222290 4988.320801,1356.560303 
	C5054.892578,1353.605103 5105.573730,1323.082031 5141.542969,1267.398926 
	C5142.502930,1265.913452 5143.583984,1264.506592 5144.608398,1263.062988 
	C5146.154297,1272.200317 5146.008301,1280.764282 5146.183105,1289.321777 
	C5146.620117,1310.729736 5145.455566,1332.005615 5139.879395,1352.762573 
	C5127.084961,1400.388184 5100.149902,1436.698242 5054.285645,1457.117065 
	C5027.121094,1469.210449 4998.524902,1471.471924 4969.132324,1468.395264 
	C4922.970215,1463.563110 4884.287598,1444.685669 4854.049316,1409.131348 
	C4851.468750,1406.096924 4848.801758,1403.031494 4845.717285,1400.548218 
	C4830.410156,1388.224365 4809.144531,1389.652588 4794.660645,1403.337158 
	C4784.316406,1413.111206 4780.051758,1432.838013 4794.878906,1449.261108 
	C4804.686523,1460.124390 4814.197754,1471.515747 4825.363770,1480.849609 
	C4886.935547,1532.320190 4958.755371,1547.968506 5036.169434,1534.483398 
	C5118.702637,1520.106567 5173.871582,1469.898071 5205.184082,1393.057373 
	C5218.194336,1361.129517 5221.627930,1327.382446 5221.487305,1293.109985 
	C5221.268066,1239.779053 5221.429199,1186.446533 5221.430176,1131.152466 
M3398.554932,1331.739258 
	C3410.027100,1359.643188 3448.100586,1360.697632 3464.394043,1341.237793 
	C3471.474609,1332.781494 3473.460449,1323.015625 3473.451172,1312.402954 
	C3473.398193,1253.080811 3473.625488,1193.757690 3473.285156,1134.437500 
	C3473.201416,1119.827881 3472.310547,1105.086670 3470.159912,1090.648804 
	C3460.548584,1026.130371 3429.246826,974.380798 3376.147705,936.465942 
	C3327.452393,901.695496 3272.441162,890.514221 3213.841309,897.794617 
	C3128.886719,908.349426 3068.275146,953.744141 3032.887451,1031.215454 
	C3010.256836,1080.759155 3008.597412,1133.260132 3020.245850,1185.905640 
	C3041.644287,1282.618042 3120.677246,1353.527222 3220.326904,1356.738281 
	C3287.365723,1358.898560 3343.624512,1336.648926 3388.431641,1286.387573 
	C3390.312256,1284.278320 3391.879150,1281.889282 3393.592285,1279.630615 
	C3394.336182,1280.059570 3395.080322,1280.488647 3395.824219,1280.917725 
	C3395.824219,1291.107666 3395.562988,1301.306763 3395.920898,1311.484131 
	C3396.141113,1317.746826 3397.306885,1323.976196 3398.554932,1331.739258 
M5684.824707,960.193665 
	C5657.044434,929.112732 5622.674805,909.310852 5581.945312,900.787720 
	C5555.328125,895.217712 5528.415527,894.336487 5501.408203,897.644958 
	C5423.914062,907.138367 5367.385254,946.863831 5333.161133,1016.843506 
	C5308.947266,1066.355713 5304.429688,1119.238037 5313.956055,1172.949219 
	C5327.787109,1250.934570 5371.459473,1306.889526 5444.361328,1337.825073 
	C5504.819336,1363.480469 5566.794922,1363.480225 5628.615723,1340.946899 
	C5651.900879,1332.459473 5673.975098,1321.675781 5693.522949,1306.237427 
	C5708.343750,1294.533081 5710.361328,1278.430908 5699.153809,1263.194092 
	C5686.410156,1245.869995 5665.013672,1243.136719 5646.084473,1256.709717 
	C5610.599121,1282.154419 5571.228027,1293.284912 5527.599609,1290.364868 
	C5456.058105,1285.576538 5396.783691,1234.186279 5382.599609,1163.999512 
	C5381.906250,1160.568481 5381.858398,1157.006958 5381.425781,1152.659668 
	C5386.534668,1152.659668 5390.470215,1152.659668 5394.405762,1152.659668 
	C5494.392578,1152.659668 5594.379883,1152.663086 5694.366699,1152.647949 
	C5698.696777,1152.647339 5703.040039,1152.663574 5707.354004,1152.351562 
	C5726.067871,1150.998169 5738.312012,1138.467407 5738.214844,1119.835083 
	C5738.146973,1106.871338 5737.566895,1093.838257 5736.082520,1080.966919 
	C5730.924316,1036.249878 5715.280273,995.799072 5684.824707,960.193665 
M4288.049316,1290.950684 
	C4309.327148,1312.684937 4334.184082,1329.061157 4362.418457,1340.266479 
	C4404.298828,1356.887207 4447.780273,1360.718506 4491.984863,1354.206177 
	C4577.286621,1341.638916 4636.623535,1294.864136 4668.832031,1215.058105 
	C4686.475098,1171.342896 4688.521973,1125.427734 4679.771484,1079.432129 
	C4664.968750,1001.627625 4621.976074,945.250793 4548.614746,913.835815 
	C4503.589844,894.555298 4456.269531,891.195801 4408.458008,899.894165 
	C4328.235352,914.489197 4271.794434,959.680542 4240.908691,1035.344604 
	C4226.184570,1071.415894 4222.951172,1109.482178 4225.706055,1148.174927 
	C4229.583008,1202.635132 4249.200684,1250.218384 4288.049316,1290.950684 
M6621.998047,1147.000000 
	C6621.999023,1202.992920 6622.258301,1258.987549 6621.887207,1314.978027 
	C6621.716309,1340.746338 6643.271484,1361.497803 6674.176758,1352.254883 
	C6688.297363,1348.031860 6695.962891,1337.530762 6698.089355,1323.116211 
	C6698.717285,1318.860229 6698.577148,1314.472656 6698.578613,1310.145386 
	C6698.604492,1233.488403 6698.727051,1156.831177 6698.538086,1080.174683 
	C6698.457520,1047.449463 6710.409180,1020.226501 6735.501465,999.491638 
	C6745.656738,991.099487 6757.125488,983.769592 6769.022461,978.113525 
	C6800.593750,963.104126 6834.171875,961.619507 6867.749512,968.770020 
	C6920.004883,979.897949 6953.194824,1011.867981 6964.712402,1064.372437 
	C6968.105957,1079.842407 6969.092773,1096.085449 6969.202637,1111.987793 
	C6969.673340,1179.975952 6969.582031,1247.969849 6969.284668,1315.959961 
	C6969.205078,1334.139038 6981.981934,1348.878662 6997.165527,1353.057129 
	C7014.075684,1357.710815 7031.285645,1351.235352 7040.824219,1336.631714 
	C7045.610840,1329.302490 7046.616211,1321.203247 7046.612793,1312.750244 
	C7046.585938,1244.425659 7046.607422,1176.100952 7046.594238,1107.776367 
	C7046.590332,1086.064087 7045.123535,1064.466187 7039.876953,1043.330688 
	C7023.955078,979.192627 6986.742676,933.096436 6924.412109,908.921997 
	C6893.485352,896.927124 6861.184570,893.610291 6828.186523,895.642639 
	C6782.006836,898.486877 6741.417969,914.718689 6706.795898,945.574036 
	C6704.694824,947.446289 6702.451172,949.159607 6698.303223,952.564209 
	C6698.303223,944.118896 6698.713867,937.872681 6698.226074,931.697510 
	C6696.797852,913.633057 6683.931152,900.995544 6665.844727,899.658752 
	C6661.876953,899.365479 6657.831543,899.398987 6653.875000,899.801270 
	C6639.288086,901.284668 6627.500000,911.023987 6623.895508,925.250549 
	C6622.446289,930.969055 6622.080566,937.087830 6622.070312,943.025818 
	C6621.951172,1010.350403 6621.996094,1077.675293 6621.998047,1147.000000 
M3670.142334,1120.750610 
	C3639.770996,1055.219727 3609.011963,989.864075 3579.270508,924.048584 
	C3570.610840,904.885071 3549.364258,894.717773 3531.021240,903.828979 
	C3509.216064,914.660156 3503.673828,930.612671 3514.708252,954.117737 
	C3514.990967,954.720154 3515.333008,955.294617 3515.616943,955.896606 
	C3573.100830,1077.827881 3630.572754,1199.764893 3688.097168,1321.677124 
	C3690.363770,1326.480835 3692.868652,1331.213989 3695.704834,1335.700317 
	C3710.117188,1358.497070 3746.035889,1358.999146 3760.018066,1334.304810 
	C3761.983643,1330.833618 3763.835205,1327.285400 3765.527344,1323.673462 
	C3800.831543,1248.320801 3836.101807,1172.952393 3871.385986,1097.590332 
	C3894.673584,1047.851807 3918.012695,998.137085 3941.244629,948.372498 
	C3948.861572,932.056152 3943.922119,915.480408 3928.726562,905.779297 
	C3919.535156,899.911377 3909.503174,898.733887 3898.974854,900.950928 
	C3885.661133,903.754578 3878.132568,912.617065 3872.688721,924.582764 
	C3825.965576,1027.285400 3779.018799,1129.886230 3732.125488,1232.511353 
	C3730.690186,1235.652710 3729.106445,1238.726074 3726.965332,1243.114746 
	C3707.765137,1201.764404 3689.272461,1161.937622 3670.142334,1120.750610 
M2516.577393,981.845093 
	C2520.868408,981.414124 2525.260498,981.426697 2529.432129,980.473572 
	C2545.370605,976.831970 2554.963623,964.937012 2555.058594,949.195862 
	C2555.156250,933.035583 2545.233887,920.285767 2529.409424,916.747742 
	C2525.559082,915.886902 2521.469482,915.870605 2517.488525,915.856812 
	C2494.829590,915.778137 2472.169678,915.839844 2449.510254,915.789368 
	C2446.653076,915.782959 2443.797119,915.397583 2440.340088,915.143677 
	C2440.340088,911.055115 2440.340088,907.766357 2440.340088,904.477600 
	C2440.340088,868.488892 2440.387939,832.500061 2440.284424,796.511658 
	C2440.270264,791.552246 2440.190918,786.417175 2438.961914,781.668701 
	C2434.557373,764.646484 2418.636475,753.675049 2400.502441,754.602478 
	C2382.136475,755.541748 2368.872559,766.794495 2365.617676,784.515320 
	C2364.842285,788.737305 2364.622070,793.111206 2364.612793,797.416321 
	C2364.536377,833.071594 2364.569580,868.727173 2364.569580,904.382629 
	C2364.569580,907.926331 2364.569580,911.469971 2364.569580,915.816467 
	C2359.734619,915.816467 2356.135986,915.803101 2352.537354,915.818970 
	C2340.209229,915.873474 2327.850830,915.414185 2315.560303,916.125977 
	C2298.534668,917.111816 2286.509033,929.453308 2285.107666,946.231079 
	C2283.705811,963.015930 2293.676025,976.538391 2310.647461,980.479736 
	C2314.497803,981.373840 2318.541748,981.715271 2322.505615,981.783630 
	C2332.832764,981.961731 2343.164795,981.847351 2353.494873,981.849182 
	C2357.024414,981.849854 2360.553711,981.849304 2364.196045,981.849304 
	C2364.366211,985.194702 2364.554199,987.171814 2364.554688,989.148865 
	C2364.570801,1053.795288 2364.503906,1118.441772 2364.633057,1183.087891 
	C2364.654785,1194.064819 2364.911865,1205.104004 2366.083252,1216.004517 
	C2370.135010,1253.711914 2384.886475,1286.577637 2412.211426,1313.238647 
	C2446.925537,1347.109131 2489.677246,1357.805176 2536.419189,1353.060669 
	C2572.388184,1349.409668 2578.673828,1318.139160 2567.911377,1296.059082 
	C2562.232422,1284.408569 2552.551025,1277.908936 2539.181885,1277.839966 
	C2530.518311,1277.795288 2521.853760,1277.861450 2513.190186,1277.807495 
	C2491.911133,1277.675293 2474.489258,1269.327026 2460.766113,1253.118774 
	C2446.033447,1235.718628 2440.493896,1215.075195 2440.424072,1192.872925 
	C2440.211426,1125.228149 2440.334961,1057.582275 2440.368652,989.936829 
	C2440.369873,987.393616 2440.795898,984.850708 2441.065186,981.847717 
	C2466.063477,981.847717 2490.368652,981.847717 2516.577393,981.845093 
M4132.124023,1277.790161 
	C4120.272949,1276.784302 4111.261230,1270.702637 4105.102539,1261.018921 
	C4100.683105,1254.070557 4097.005859,1246.468994 4094.184326,1238.726318 
	C4089.443604,1225.717407 4089.414551,1211.944702 4089.416260,1198.249756 
	C4089.434570,1048.268677 4089.429932,898.287659 4089.413574,748.306641 
	C4089.413086,744.647766 4089.503906,740.949890 4089.038574,737.336304 
	C4086.302734,716.080383 4070.608398,703.639832 4048.427979,704.975647 
	C4027.482178,706.237122 4014.177246,720.114746 4013.675049,741.246033 
	C4013.619629,743.577759 4013.660400,745.911926 4013.660400,748.244934 
	C4013.659912,899.892456 4013.655762,1051.539917 4013.676025,1203.187500 
	C4013.677002,1209.183716 4013.653809,1215.198608 4014.085205,1221.172852 
	C4016.081299,1248.814453 4023.000732,1275.022217 4037.913574,1298.660156 
	C4054.792725,1325.414551 4077.880371,1344.112427 4109.254883,1350.954224 
	C4126.972656,1354.817993 4145.007812,1356.027832 4162.554688,1349.955566 
	C4184.948242,1342.206177 4194.146973,1322.821289 4186.625488,1300.439087 
	C4181.926270,1286.454956 4171.598145,1278.495972 4156.910156,1277.930908 
	C4149.254883,1277.636353 4141.581543,1277.832764 4132.124023,1277.790161 
M2675.993408,1035.000000 
	C2675.992676,1126.288818 2675.989258,1217.577759 2675.999512,1308.866577 
	C2676.000000,1312.863159 2675.928955,1316.874268 2676.224854,1320.853882 
	C2677.558838,1338.797852 2687.225342,1350.064331 2704.934326,1352.723877 
	C2711.996094,1353.784424 2719.569580,1353.233765 2726.651367,1351.967896 
	C2738.878174,1349.782471 2746.908447,1341.918701 2749.907471,1329.933960 
	C2751.499512,1323.572510 2751.915039,1316.779785 2751.925781,1310.180298 
	C2752.056396,1230.219727 2752.018799,1150.258911 2752.010010,1070.298096 
	C2752.007080,1044.507690 2760.408203,1021.990173 2778.234619,1003.206787 
	C2789.636963,991.192627 2803.257568,982.385986 2818.492920,975.990234 
	C2850.127441,962.710083 2883.069580,961.310181 2916.618896,964.971802 
	C2927.850342,966.197693 2939.127197,967.766418 2950.386719,967.794495 
	C2964.889893,967.830627 2973.964844,959.793030 2977.533203,945.874878 
	C2981.157715,931.737976 2977.459229,920.049133 2965.428955,911.683594 
	C2960.017578,907.920715 2954.139648,904.196289 2947.911865,902.379578 
	C2937.118652,899.230957 2925.987793,896.629333 2914.824463,895.459961 
	C2854.036133,889.092346 2801.841797,907.187317 2759.164062,951.464722 
	C2757.250000,953.450317 2755.158936,955.265198 2751.812256,958.421692 
	C2751.812256,948.146851 2752.280518,939.847229 2751.704834,931.620667 
	C2750.787598,918.516846 2745.642334,907.580933 2732.591064,902.469910 
	C2721.735352,898.218628 2710.416748,898.097473 2699.259033,901.370850 
	C2688.170166,904.623840 2680.902588,912.186279 2678.050537,923.285583 
	C2676.581299,929.004578 2676.110596,935.109619 2676.074707,941.045654 
	C2675.889648,971.696106 2675.991699,1002.348389 2675.993408,1035.000000 
M5904.008301,1235.000000 
	C5904.010254,1179.693970 5903.883789,1124.387451 5904.066895,1069.081909 
	C5904.167480,1038.578003 5916.420410,1013.643066 5939.919922,994.241272 
	C5954.011230,982.607117 5970.165039,974.990417 5987.632324,969.958801 
	C6018.383789,961.100281 6049.470703,962.105957 6080.725098,966.535950 
	C6087.289062,967.466431 6093.976562,967.949951 6100.604004,967.919922 
	C6114.656738,967.856323 6123.771484,961.821533 6128.054688,950.418152 
	C6133.627930,935.580383 6131.165039,923.607910 6120.408691,913.990295 
	C6112.546387,906.960205 6103.202637,902.632446 6093.118652,899.969910 
	C6065.952637,892.797241 6038.461914,892.242493 6010.912109,897.072815 
	C5971.160645,904.042480 5937.877441,923.029419 5910.331055,952.351624 
	C5908.708008,954.079346 5906.776855,955.517090 5903.845215,958.095825 
	C5903.845215,948.343567 5904.230957,940.346130 5903.758789,932.399719 
	C5902.956055,918.892395 5897.882812,907.609863 5884.386719,902.396179 
	C5873.526367,898.200500 5862.198242,898.084290 5851.053223,901.438904 
	C5839.986328,904.769836 5832.734375,912.365234 5830.006836,923.496948 
	C5828.522949,929.553101 5828.074707,935.993958 5828.069336,942.262146 
	C5827.962891,1065.201904 5827.986816,1188.141724 5828.006348,1311.081543 
	C5828.006836,1315.075806 5827.916992,1319.110718 5828.418457,1323.056885 
	C5829.885254,1334.607056 5834.949219,1343.985596 5845.702637,1349.484863 
	C5874.478027,1364.200806 5903.516113,1346.986694 5904.002930,1314.961792 
	C5904.028320,1313.296265 5904.008301,1311.630127 5904.008301,1309.964233 
	C5904.008301,1285.642822 5904.008301,1261.321411 5904.008301,1235.000000 
M6462.261719,1343.308350 
	C6471.247559,1334.533936 6473.747070,1323.569824 6473.737793,1311.420654 
	C6473.644043,1188.148193 6473.682129,1064.875854 6473.675781,941.603394 
	C6473.675781,938.939331 6473.774414,936.258179 6473.523438,933.613953 
	C6471.958984,917.125732 6462.265625,904.431763 6447.241699,900.848999 
	C6440.912109,899.339539 6433.972168,899.364685 6427.429688,899.975952 
	C6412.767578,901.345764 6401.274414,911.359436 6397.724609,925.661804 
	C6396.383301,931.068787 6396.063965,936.843811 6396.060059,942.451599 
	C6395.970215,1065.057617 6395.988770,1187.663696 6395.999512,1310.269775 
	C6396.000000,1313.599365 6395.910645,1316.952759 6396.253906,1320.254517 
	C6397.933594,1336.419922 6408.828613,1348.737793 6424.648926,1352.400757 
	C6438.090820,1355.512939 6450.429199,1353.436523 6462.261719,1343.308350 
M6206.971191,1366.173828 
	C6244.570312,1372.357422 6273.120117,1340.011475 6269.940430,1308.166626 
	C6267.808105,1286.819702 6256.897461,1271.126587 6237.612305,1262.478149 
	C6218.562500,1253.935059 6199.828613,1256.282227 6183.265625,1269.526367 
	C6165.583008,1283.666382 6158.386719,1302.325684 6163.201660,1324.417969 
	C6168.118652,1346.979614 6182.860352,1360.676147 6206.971191,1366.173828 
M6456.404297,815.927734 
	C6459.236816,814.202942 6462.225098,812.687439 6464.877441,810.719971 
	C6485.903320,795.125061 6492.225586,765.990295 6479.466309,743.903015 
	C6466.333496,721.167114 6437.253418,711.507690 6413.640625,722.625671 
	C6388.642578,734.395874 6377.820312,758.341797 6386.108398,785.822815 
	C6392.895508,808.326721 6419.756348,829.862610 6456.404297,815.927734 
z"/>
<path fill="#154A58" opacity="1.000000" stroke="none" 
	d="
M776.310303,1138.291016 
	C768.632812,1150.725952 761.567322,1163.591675 753.171509,1175.520996 
	C717.505920,1226.197510 681.542603,1276.665649 645.500488,1327.075806 
	C613.517578,1371.808716 582.050720,1416.874146 554.984497,1464.823242 
	C525.400330,1517.233032 501.158966,1571.861816 487.193420,1630.657837 
	C478.286102,1668.158203 473.751984,1706.026367 478.010284,1744.616699 
	C483.176086,1791.431641 500.346008,1832.930786 533.332886,1866.983521 
	C542.750061,1876.704834 554.109619,1884.544678 564.856262,1893.478271 
	C563.654114,1893.701660 561.956177,1894.286377 560.256409,1894.291748 
	C541.257263,1894.352539 522.217957,1895.128540 503.265137,1894.187378 
	C390.733307,1888.599731 306.475739,1836.211304 250.657028,1738.782471 
	C225.660431,1695.152100 214.636993,1647.258911 214.627090,1597.023438 
	C214.551193,1211.703369 214.574570,826.383362 214.589569,441.063354 
	C214.595108,298.992889 315.511902,176.512573 455.224304,149.815964 
	C474.087250,146.211594 493.569061,144.244446 512.766541,144.228607 
	C897.752991,143.910812 1282.739868,143.866058 1667.726440,144.055801 
	C1809.850342,144.125854 1930.503540,242.923676 1959.381958,382.076355 
	C1963.525024,402.039124 1965.363403,422.300385 1965.367188,442.653412 
	C1965.437012,827.306824 1965.559570,1211.960327 1965.344727,1596.613647 
	C1965.266724,1736.308960 1870.417114,1855.206787 1734.451904,1887.108032 
	C1713.971558,1891.913208 1693.155273,1894.362305 1672.056885,1894.359253 
	C1418.065674,1894.322632 1164.074463,1894.313599 910.083252,1894.467529 
	C903.950745,1894.471313 899.435730,1892.721924 894.875732,1888.793457 
	C856.023560,1855.320312 827.577209,1815.247803 815.159912,1764.798706 
	C806.409119,1729.245605 806.770264,1693.527954 813.030090,1657.696533 
	C823.062683,1600.270142 845.637268,1547.442993 872.671387,1496.318481 
	C904.507507,1436.112671 942.518188,1379.784180 981.557312,1324.118652 
	C1003.366699,1293.020874 1025.186279,1261.930054 1046.971924,1230.815674 
	C1049.050537,1227.847046 1050.921021,1224.732788 1053.148071,1221.283569 
	C1044.478394,1215.402466 1034.961182,1214.025024 1025.652466,1212.067627 
	C1015.560364,1209.945557 1005.329163,1208.341431 995.402710,1205.620850 
	C987.095215,1203.343994 979.243591,1199.624146 972.721252,1190.494751 
	C977.858032,1190.425781 981.617310,1190.331299 985.376526,1190.331177 
	C1174.703369,1190.323853 1364.030151,1190.324585 1553.356934,1190.324585 
	C1567.023193,1190.324585 1580.707275,1189.905640 1594.348389,1190.492065 
	C1601.747192,1190.810059 1607.099121,1188.378174 1611.824463,1183.050049 
	C1628.849121,1163.852783 1646.062988,1144.823120 1663.077393,1125.616821 
	C1676.999390,1109.901367 1690.745117,1094.029663 1704.545776,1078.206909 
	C1705.363525,1077.269165 1705.973511,1076.150146 1707.212646,1074.335815 
	C1545.771484,1044.731079 1385.158813,1015.278137 1224.727539,985.858521 
	C1222.417969,977.407959 1224.624512,970.397583 1228.487183,964.115051 
	C1235.458008,952.777100 1242.601440,941.497742 1250.428711,930.744080 
	C1266.310059,908.924805 1282.914551,887.632202 1298.807373,865.821167 
	C1312.752319,846.683105 1325.348999,826.672913 1334.832397,804.859741 
	C1340.303711,792.275085 1344.441650,779.308289 1345.845825,765.598450 
	C1350.365723,721.466125 1317.481934,692.099915 1285.413574,685.960510 
	C1259.906982,681.077271 1234.859253,684.074890 1210.317505,690.997375 
	C1143.585938,709.820007 1084.134155,742.647827 1031.276733,787.203613 
	C1002.774170,811.229553 980.834961,841.197571 959.915771,871.789001 
	C939.606934,901.487854 919.358826,931.239502 899.770142,961.413391 
	C893.086487,971.708679 884.915466,976.640198 872.791199,978.687256 
	C805.182922,990.102783 737.826050,1003.030029 670.161682,1014.084778 
	C584.078125,1028.148682 497.787048,1040.944092 411.569855,1054.184937 
	C406.073700,1055.029053 401.326965,1056.902466 397.485535,1060.902344 
	C384.577332,1074.343140 370.642181,1086.962158 359.015869,1101.434814 
	C336.093536,1129.968994 314.455627,1159.534912 291.793427,1189.322266 
	C293.683838,1189.673340 295.417206,1190.276367 297.150757,1190.276978 
	C423.479706,1190.322998 549.808655,1190.297729 676.137573,1190.410645 
	C681.108459,1190.415039 685.073792,1188.706421 689.156433,1186.301392 
	C717.275696,1169.735596 745.460571,1153.281250 774.608398,1137.098389 
	C775.831787,1137.700684 776.071045,1137.995850 776.310303,1138.291016 
z"/>
<path fill="#174C59" opacity="1.000000" stroke="none" 
	d="
M5221.429688,1132.133545 
	C5221.429199,1186.446533 5221.268066,1239.779053 5221.487305,1293.109985 
	C5221.627930,1327.382446 5218.194336,1361.129517 5205.184082,1393.057373 
	C5173.871582,1469.898071 5118.702637,1520.106567 5036.169434,1534.483398 
	C4958.755371,1547.968506 4886.935547,1532.320190 4825.363770,1480.849609 
	C4814.197754,1471.515747 4804.686523,1460.124390 4794.878906,1449.261108 
	C4780.051758,1432.838013 4784.316406,1413.111206 4794.660645,1403.337158 
	C4809.144531,1389.652588 4830.410156,1388.224365 4845.717285,1400.548218 
	C4848.801758,1403.031494 4851.468750,1406.096924 4854.049316,1409.131348 
	C4884.287598,1444.685669 4922.970215,1463.563110 4969.132324,1468.395264 
	C4998.524902,1471.471924 5027.121094,1469.210449 5054.285645,1457.117065 
	C5100.149902,1436.698242 5127.084961,1400.388184 5139.879395,1352.762573 
	C5145.455566,1332.005615 5146.620117,1310.729736 5146.183105,1289.321777 
	C5146.008301,1280.764282 5146.154297,1272.200317 5144.608398,1263.062988 
	C5143.583984,1264.506592 5142.502930,1265.913452 5141.542969,1267.398926 
	C5105.573730,1323.082031 5054.892578,1353.605103 4988.320801,1356.560303 
	C4928.357910,1359.222290 4875.044922,1342.447388 4830.957031,1300.636230 
	C4796.490723,1267.949829 4775.597656,1227.546265 4766.890137,1181.086182 
	C4757.962891,1133.449341 4758.943359,1085.911865 4776.199219,1040.213135 
	C4805.690430,962.107483 4862.647949,915.515991 4944.422852,900.047119 
	C4989.760742,891.470886 5035.036621,893.929993 5078.265625,910.694580 
	C5153.783691,939.980774 5199.096680,995.789307 5215.683594,1074.600342 
	C5219.564453,1093.037354 5219.616699,1112.280151 5221.429688,1132.133545 
M4941.008789,971.735718 
	C4893.496582,987.626770 4862.080566,1019.770996 4845.615234,1066.744385 
	C4835.495605,1095.613037 4833.433594,1125.401367 4838.110352,1155.456909 
	C4846.888672,1211.866455 4876.080078,1253.372803 4929.088867,1276.682251 
	C4952.135742,1286.816528 4976.529297,1289.543701 5001.432617,1288.153076 
	C5054.940430,1285.165405 5096.225586,1261.069824 5123.690430,1214.997559 
	C5154.949219,1162.561890 5154.026855,1087.815918 5122.249512,1035.590088 
	C5101.155762,1000.921509 5070.826172,978.310852 5031.358398,968.792236 
	C5001.669922,961.632263 4971.920898,962.380554 4941.008789,971.735718 
z"/>
<path fill="#174C5A" opacity="1.000000" stroke="none" 
	d="
M3398.301514,1330.979980 
	C3397.306885,1323.976196 3396.141113,1317.746826 3395.920898,1311.484131 
	C3395.562988,1301.306763 3395.824219,1291.107666 3395.824219,1280.917725 
	C3395.080322,1280.488647 3394.336182,1280.059570 3393.592285,1279.630615 
	C3391.879150,1281.889282 3390.312256,1284.278320 3388.431641,1286.387573 
	C3343.624512,1336.648926 3287.365723,1358.898560 3220.326904,1356.738281 
	C3120.677246,1353.527222 3041.644287,1282.618042 3020.245850,1185.905640 
	C3008.597412,1133.260132 3010.256836,1080.759155 3032.887451,1031.215454 
	C3068.275146,953.744141 3128.886719,908.349426 3213.841309,897.794617 
	C3272.441162,890.514221 3327.452393,901.695496 3376.147705,936.465942 
	C3429.246826,974.380798 3460.548584,1026.130371 3470.159912,1090.648804 
	C3472.310547,1105.086670 3473.201416,1119.827881 3473.285156,1134.437500 
	C3473.625488,1193.757690 3473.398193,1253.080811 3473.451172,1312.402954 
	C3473.460449,1323.015625 3471.474609,1332.781494 3464.394043,1341.237793 
	C3448.100586,1360.697632 3410.027100,1359.643188 3398.301514,1330.979980 
M3315.464844,981.320435 
	C3298.489258,972.328308 3280.419434,967.031433 3261.301758,965.253906 
	C3204.314453,959.955627 3156.939941,978.451599 3121.456787,1023.737915 
	C3093.352539,1059.607300 3084.716553,1101.368530 3089.009766,1146.093384 
	C3092.176758,1179.087891 3103.820801,1208.917358 3125.422852,1234.197266 
	C3158.541992,1272.954834 3201.082275,1290.441650 3251.888184,1288.248901 
	C3293.177979,1286.466797 3328.098877,1270.584717 3355.879150,1240.079102 
	C3387.610596,1205.234253 3400.573242,1163.466675 3397.901123,1116.904541 
	C3394.515625,1057.919800 3368.623779,1012.052185 3315.464844,981.320435 
z"/>
<path fill="#174C5A" opacity="1.000000" stroke="none" 
	d="
M5685.297852,960.720093 
	C5715.280273,995.799072 5730.924316,1036.249878 5736.082520,1080.966919 
	C5737.566895,1093.838257 5738.146973,1106.871338 5738.214844,1119.835083 
	C5738.312012,1138.467407 5726.067871,1150.998169 5707.354004,1152.351562 
	C5703.040039,1152.663574 5698.696777,1152.647339 5694.366699,1152.647949 
	C5594.379883,1152.663086 5494.392578,1152.659668 5394.405762,1152.659668 
	C5390.470215,1152.659668 5386.534668,1152.659668 5381.425781,1152.659668 
	C5381.858398,1157.006958 5381.906250,1160.568481 5382.599609,1163.999512 
	C5396.783691,1234.186279 5456.058105,1285.576538 5527.599609,1290.364868 
	C5571.228027,1293.284912 5610.599121,1282.154419 5646.084473,1256.709717 
	C5665.013672,1243.136719 5686.410156,1245.869995 5699.153809,1263.194092 
	C5710.361328,1278.430908 5708.343750,1294.533081 5693.522949,1306.237427 
	C5673.975098,1321.675781 5651.900879,1332.459473 5628.615723,1340.946899 
	C5566.794922,1363.480225 5504.819336,1363.480469 5444.361328,1337.825073 
	C5371.459473,1306.889526 5327.787109,1250.934570 5313.956055,1172.949219 
	C5304.429688,1119.238037 5308.947266,1066.355713 5333.161133,1016.843506 
	C5367.385254,946.863831 5423.914062,907.138367 5501.408203,897.644958 
	C5528.415527,894.336487 5555.328125,895.217712 5581.945312,900.787720 
	C5622.674805,909.310852 5657.044434,929.112732 5685.297852,960.720093 
M5618.003906,990.913330 
	C5605.028320,980.148987 5590.624512,971.999634 5574.292969,967.585693 
	C5538.759277,957.982239 5503.505859,959.194214 5469.587402,973.474182 
	C5421.934570,993.536560 5395.589355,1031.401855 5383.979004,1080.636963 
	C5383.257812,1083.692993 5382.941895,1086.844727 5382.394531,1090.216064 
	C5478.134766,1090.216064 5572.861816,1090.216064 5668.378906,1090.216064 
	C5662.539551,1051.424072 5648.746582,1017.697021 5618.003906,990.913330 
z"/>
<path fill="#174C59" opacity="1.000000" stroke="none" 
	d="
M4287.548340,1290.449219 
	C4249.200684,1250.218384 4229.583008,1202.635132 4225.706055,1148.174927 
	C4222.951172,1109.482178 4226.184570,1071.415894 4240.908691,1035.344604 
	C4271.794434,959.680542 4328.235352,914.489197 4408.458008,899.894165 
	C4456.269531,891.195801 4503.589844,894.555298 4548.614746,913.835815 
	C4621.976074,945.250793 4664.968750,1001.627625 4679.771484,1079.432129 
	C4688.521973,1125.427734 4686.475098,1171.342896 4668.832031,1215.058105 
	C4636.623535,1294.864136 4577.286621,1341.638916 4491.984863,1354.206177 
	C4447.780273,1360.718506 4404.298828,1356.887207 4362.418457,1340.266479 
	C4334.184082,1329.061157 4309.327148,1312.684937 4287.548340,1290.449219 
M4566.900391,1241.868774 
	C4583.633789,1223.643066 4595.522949,1202.694702 4602.228027,1178.853638 
	C4611.643555,1145.378540 4611.988770,1111.654785 4603.206543,1078.149658 
	C4593.006348,1039.232422 4571.348145,1008.068970 4536.970215,986.479248 
	C4510.472656,969.838257 4481.140625,963.806030 4450.174805,964.164856 
	C4384.336426,964.927856 4328.947754,1005.244324 4308.132812,1067.651367 
	C4299.334473,1094.029541 4297.352051,1121.147949 4300.206543,1148.571411 
	C4304.476074,1189.591553 4321.180176,1224.525269 4352.309570,1252.244751 
	C4408.297852,1302.100708 4510.689941,1302.425781 4566.900391,1241.868774 
z"/>
<path fill="#164B59" opacity="1.000000" stroke="none" 
	d="
M6621.998047,1146.000000 
	C6621.996094,1077.675293 6621.951172,1010.350403 6622.070312,943.025818 
	C6622.080566,937.087830 6622.446289,930.969055 6623.895508,925.250549 
	C6627.500000,911.023987 6639.288086,901.284668 6653.875000,899.801270 
	C6657.831543,899.398987 6661.876953,899.365479 6665.844727,899.658752 
	C6683.931152,900.995544 6696.797852,913.633057 6698.226074,931.697510 
	C6698.713867,937.872681 6698.303223,944.118896 6698.303223,952.564209 
	C6702.451172,949.159607 6704.694824,947.446289 6706.795898,945.574036 
	C6741.417969,914.718689 6782.006836,898.486877 6828.186523,895.642639 
	C6861.184570,893.610291 6893.485352,896.927124 6924.412109,908.921997 
	C6986.742676,933.096436 7023.955078,979.192627 7039.876953,1043.330688 
	C7045.123535,1064.466187 7046.590332,1086.064087 7046.594238,1107.776367 
	C7046.607422,1176.100952 7046.585938,1244.425659 7046.612793,1312.750244 
	C7046.616211,1321.203247 7045.610840,1329.302490 7040.824219,1336.631714 
	C7031.285645,1351.235352 7014.075684,1357.710815 6997.165527,1353.057129 
	C6981.981934,1348.878662 6969.205078,1334.139038 6969.284668,1315.959961 
	C6969.582031,1247.969849 6969.673340,1179.975952 6969.202637,1111.987793 
	C6969.092773,1096.085449 6968.105957,1079.842407 6964.712402,1064.372437 
	C6953.194824,1011.867981 6920.004883,979.897949 6867.749512,968.770020 
	C6834.171875,961.619507 6800.593750,963.104126 6769.022461,978.113525 
	C6757.125488,983.769592 6745.656738,991.099487 6735.501465,999.491638 
	C6710.409180,1020.226501 6698.457520,1047.449463 6698.538086,1080.174683 
	C6698.727051,1156.831177 6698.604492,1233.488403 6698.578613,1310.145386 
	C6698.577148,1314.472656 6698.717285,1318.860229 6698.089355,1323.116211 
	C6695.962891,1337.530762 6688.297363,1348.031860 6674.176758,1352.254883 
	C6643.271484,1361.497803 6621.716309,1340.746338 6621.887207,1314.978027 
	C6622.258301,1258.987549 6621.999023,1202.992920 6621.998047,1146.000000 
z"/>
<path fill="#174C5A" opacity="1.000000" stroke="none" 
	d="
M3670.460938,1121.430786 
	C3689.272461,1161.937622 3707.765137,1201.764404 3726.965332,1243.114746 
	C3729.106445,1238.726074 3730.690186,1235.652710 3732.125488,1232.511353 
	C3779.018799,1129.886230 3825.965576,1027.285400 3872.688721,924.582764 
	C3878.132568,912.617065 3885.661133,903.754578 3898.974854,900.950928 
	C3909.503174,898.733887 3919.535156,899.911377 3928.726562,905.779297 
	C3943.922119,915.480408 3948.861572,932.056152 3941.244629,948.372498 
	C3918.012695,998.137085 3894.673584,1047.851807 3871.385986,1097.590332 
	C3836.101807,1172.952393 3800.831543,1248.320801 3765.527344,1323.673462 
	C3763.835205,1327.285400 3761.983643,1330.833618 3760.018066,1334.304810 
	C3746.035889,1358.999146 3710.117188,1358.497070 3695.704834,1335.700317 
	C3692.868652,1331.213989 3690.363770,1326.480835 3688.097168,1321.677124 
	C3630.572754,1199.764893 3573.100830,1077.827881 3515.616943,955.896606 
	C3515.333008,955.294617 3514.990967,954.720154 3514.708252,954.117737 
	C3503.673828,930.612671 3509.216064,914.660156 3531.021240,903.828979 
	C3549.364258,894.717773 3570.610840,904.885071 3579.270508,924.048584 
	C3609.011963,989.864075 3639.770996,1055.219727 3670.460938,1121.430786 
z"/>
<path fill="#174C5A" opacity="1.000000" stroke="none" 
	d="
M2515.625488,981.846436 
	C2490.368652,981.847717 2466.063477,981.847717 2441.065186,981.847717 
	C2440.795898,984.850708 2440.369873,987.393616 2440.368652,989.936829 
	C2440.334961,1057.582275 2440.211426,1125.228149 2440.424072,1192.872925 
	C2440.493896,1215.075195 2446.033447,1235.718628 2460.766113,1253.118774 
	C2474.489258,1269.327026 2491.911133,1277.675293 2513.190186,1277.807495 
	C2521.853760,1277.861450 2530.518311,1277.795288 2539.181885,1277.839966 
	C2552.551025,1277.908936 2562.232422,1284.408569 2567.911377,1296.059082 
	C2578.673828,1318.139160 2572.388184,1349.409668 2536.419189,1353.060669 
	C2489.677246,1357.805176 2446.925537,1347.109131 2412.211426,1313.238647 
	C2384.886475,1286.577637 2370.135010,1253.711914 2366.083252,1216.004517 
	C2364.911865,1205.104004 2364.654785,1194.064819 2364.633057,1183.087891 
	C2364.503906,1118.441772 2364.570801,1053.795288 2364.554688,989.148865 
	C2364.554199,987.171814 2364.366211,985.194702 2364.196045,981.849304 
	C2360.553711,981.849304 2357.024414,981.849854 2353.494873,981.849182 
	C2343.164795,981.847351 2332.832764,981.961731 2322.505615,981.783630 
	C2318.541748,981.715271 2314.497803,981.373840 2310.647461,980.479736 
	C2293.676025,976.538391 2283.705811,963.015930 2285.107666,946.231079 
	C2286.509033,929.453308 2298.534668,917.111816 2315.560303,916.125977 
	C2327.850830,915.414185 2340.209229,915.873474 2352.537354,915.818970 
	C2356.135986,915.803101 2359.734619,915.816467 2364.569580,915.816467 
	C2364.569580,911.469971 2364.569580,907.926331 2364.569580,904.382629 
	C2364.569580,868.727173 2364.536377,833.071594 2364.612793,797.416321 
	C2364.622070,793.111206 2364.842285,788.737305 2365.617676,784.515320 
	C2368.872559,766.794495 2382.136475,755.541748 2400.502441,754.602478 
	C2418.636475,753.675049 2434.557373,764.646484 2438.961914,781.668701 
	C2440.190918,786.417175 2440.270264,791.552246 2440.284424,796.511658 
	C2440.387939,832.500061 2440.340088,868.488892 2440.340088,904.477600 
	C2440.340088,907.766357 2440.340088,911.055115 2440.340088,915.143677 
	C2443.797119,915.397583 2446.653076,915.782959 2449.510254,915.789368 
	C2472.169678,915.839844 2494.829590,915.778137 2517.488525,915.856812 
	C2521.469482,915.870605 2525.559082,915.886902 2529.409424,916.747742 
	C2545.233887,920.285767 2555.156250,933.035583 2555.058594,949.195862 
	C2554.963623,964.937012 2545.370605,976.831970 2529.432129,980.473572 
	C2525.260498,981.426697 2520.868408,981.414124 2515.625488,981.846436 
z"/>
<path fill="#174C5A" opacity="1.000000" stroke="none" 
	d="
M4133.020020,1277.798828 
	C4141.581543,1277.832764 4149.254883,1277.636353 4156.910156,1277.930908 
	C4171.598145,1278.495972 4181.926270,1286.454956 4186.625488,1300.439087 
	C4194.146973,1322.821289 4184.948242,1342.206177 4162.554688,1349.955566 
	C4145.007812,1356.027832 4126.972656,1354.817993 4109.254883,1350.954224 
	C4077.880371,1344.112427 4054.792725,1325.414551 4037.913574,1298.660156 
	C4023.000732,1275.022217 4016.081299,1248.814453 4014.085205,1221.172852 
	C4013.653809,1215.198608 4013.677002,1209.183716 4013.676025,1203.187500 
	C4013.655762,1051.539917 4013.659912,899.892456 4013.660400,748.244934 
	C4013.660400,745.911926 4013.619629,743.577759 4013.675049,741.246033 
	C4014.177246,720.114746 4027.482178,706.237122 4048.427979,704.975647 
	C4070.608398,703.639832 4086.302734,716.080383 4089.038574,737.336304 
	C4089.503906,740.949890 4089.413086,744.647766 4089.413574,748.306641 
	C4089.429932,898.287659 4089.434570,1048.268677 4089.416260,1198.249756 
	C4089.414551,1211.944702 4089.443604,1225.717407 4094.184326,1238.726318 
	C4097.005859,1246.468994 4100.683105,1254.070557 4105.102539,1261.018921 
	C4111.261230,1270.702637 4120.272949,1276.784302 4133.020020,1277.798828 
z"/>
<path fill="#174C59" opacity="1.000000" stroke="none" 
	d="
M2675.993408,1034.000000 
	C2675.991699,1002.348389 2675.889648,971.696106 2676.074707,941.045654 
	C2676.110596,935.109619 2676.581299,929.004578 2678.050537,923.285583 
	C2680.902588,912.186279 2688.170166,904.623840 2699.259033,901.370850 
	C2710.416748,898.097473 2721.735352,898.218628 2732.591064,902.469910 
	C2745.642334,907.580933 2750.787598,918.516846 2751.704834,931.620667 
	C2752.280518,939.847229 2751.812256,948.146851 2751.812256,958.421692 
	C2755.158936,955.265198 2757.250000,953.450317 2759.164062,951.464722 
	C2801.841797,907.187317 2854.036133,889.092346 2914.824463,895.459961 
	C2925.987793,896.629333 2937.118652,899.230957 2947.911865,902.379578 
	C2954.139648,904.196289 2960.017578,907.920715 2965.428955,911.683594 
	C2977.459229,920.049133 2981.157715,931.737976 2977.533203,945.874878 
	C2973.964844,959.793030 2964.889893,967.830627 2950.386719,967.794495 
	C2939.127197,967.766418 2927.850342,966.197693 2916.618896,964.971802 
	C2883.069580,961.310181 2850.127441,962.710083 2818.492920,975.990234 
	C2803.257568,982.385986 2789.636963,991.192627 2778.234619,1003.206787 
	C2760.408203,1021.990173 2752.007080,1044.507690 2752.010010,1070.298096 
	C2752.018799,1150.258911 2752.056396,1230.219727 2751.925781,1310.180298 
	C2751.915039,1316.779785 2751.499512,1323.572510 2749.907471,1329.933960 
	C2746.908447,1341.918701 2738.878174,1349.782471 2726.651367,1351.967896 
	C2719.569580,1353.233765 2711.996094,1353.784424 2704.934326,1352.723877 
	C2687.225342,1350.064331 2677.558838,1338.797852 2676.224854,1320.853882 
	C2675.928955,1316.874268 2676.000000,1312.863159 2675.999512,1308.866577 
	C2675.989258,1217.577759 2675.992676,1126.288818 2675.993408,1034.000000 
z"/>
<path fill="#174C59" opacity="1.000000" stroke="none" 
	d="
M5904.008301,1236.000000 
	C5904.008301,1261.321411 5904.008301,1285.642822 5904.008301,1309.964233 
	C5904.008301,1311.630127 5904.028320,1313.296265 5904.002930,1314.961792 
	C5903.516113,1346.986694 5874.478027,1364.200806 5845.702637,1349.484863 
	C5834.949219,1343.985596 5829.885254,1334.607056 5828.418457,1323.056885 
	C5827.916992,1319.110718 5828.006836,1315.075806 5828.006348,1311.081543 
	C5827.986816,1188.141724 5827.962891,1065.201904 5828.069336,942.262146 
	C5828.074707,935.993958 5828.522949,929.553101 5830.006836,923.496948 
	C5832.734375,912.365234 5839.986328,904.769836 5851.053223,901.438904 
	C5862.198242,898.084290 5873.526367,898.200500 5884.386719,902.396179 
	C5897.882812,907.609863 5902.956055,918.892395 5903.758789,932.399719 
	C5904.230957,940.346130 5903.845215,948.343567 5903.845215,958.095825 
	C5906.776855,955.517090 5908.708008,954.079346 5910.331055,952.351624 
	C5937.877441,923.029419 5971.160645,904.042480 6010.912109,897.072815 
	C6038.461914,892.242493 6065.952637,892.797241 6093.118652,899.969910 
	C6103.202637,902.632446 6112.546387,906.960205 6120.408691,913.990295 
	C6131.165039,923.607910 6133.627930,935.580383 6128.054688,950.418152 
	C6123.771484,961.821533 6114.656738,967.856323 6100.604004,967.919922 
	C6093.976562,967.949951 6087.289062,967.466431 6080.725098,966.535950 
	C6049.470703,962.105957 6018.383789,961.100281 5987.632324,969.958801 
	C5970.165039,974.990417 5954.011230,982.607117 5939.919922,994.241272 
	C5916.420410,1013.643066 5904.167480,1038.578003 5904.066895,1069.081909 
	C5903.883789,1124.387451 5904.010254,1179.693970 5904.008301,1236.000000 
z"/>
<path fill="#174C5A" opacity="1.000000" stroke="none" 
	d="
M6461.715820,1343.796265 
	C6450.429199,1353.436523 6438.090820,1355.512939 6424.648926,1352.400757 
	C6408.828613,1348.737793 6397.933594,1336.419922 6396.253906,1320.254517 
	C6395.910645,1316.952759 6396.000000,1313.599365 6395.999512,1310.269775 
	C6395.988770,1187.663696 6395.970215,1065.057617 6396.060059,942.451599 
	C6396.063965,936.843811 6396.383301,931.068787 6397.724609,925.661804 
	C6401.274414,911.359436 6412.767578,901.345764 6427.429688,899.975952 
	C6433.972168,899.364685 6440.912109,899.339539 6447.241699,900.848999 
	C6462.265625,904.431763 6471.958984,917.125732 6473.523438,933.613953 
	C6473.774414,936.258179 6473.675781,938.939331 6473.675781,941.603394 
	C6473.682129,1064.875854 6473.644043,1188.148193 6473.737793,1311.420654 
	C6473.747070,1323.569824 6471.247559,1334.533936 6461.715820,1343.796265 
z"/>
<path fill="#174C5A" opacity="1.000000" stroke="none" 
	d="
M6206.155273,1366.081543 
	C6182.860352,1360.676147 6168.118652,1346.979614 6163.201660,1324.417969 
	C6158.386719,1302.325684 6165.583008,1283.666382 6183.265625,1269.526367 
	C6199.828613,1256.282227 6218.562500,1253.935059 6237.612305,1262.478149 
	C6256.897461,1271.126587 6267.808105,1286.819702 6269.940430,1308.166626 
	C6273.120117,1340.011475 6244.570312,1372.357422 6206.155273,1366.081543 
z"/>
<path fill="#184C5A" opacity="1.000000" stroke="none" 
	d="
M6455.672852,816.200500 
	C6419.756348,829.862610 6392.895508,808.326721 6386.108398,785.822815 
	C6377.820312,758.341797 6388.642578,734.395874 6413.640625,722.625671 
	C6437.253418,711.507690 6466.333496,721.167114 6479.466309,743.903015 
	C6492.225586,765.990295 6485.903320,795.125061 6464.877441,810.719971 
	C6462.225098,812.687439 6459.236816,814.202942 6455.672852,816.200500 
z"/>
<path fill="#154A58" opacity="1.000000" stroke="none" 
	d="
M775.302856,1136.914673 
	C775.794922,1136.282593 776.576721,1136.141235 777.358521,1136.000000 
	C777.346130,1136.576538 777.333679,1137.153198 776.815796,1138.010376 
	C776.071045,1137.995850 775.831787,1137.700684 775.302856,1136.914673 
z"/>
<path fill="#FEFEFE" opacity="1.000000" stroke="none" 
	d="
M4941.773438,971.497131 
	C4971.920898,962.380554 5001.669922,961.632263 5031.358398,968.792236 
	C5070.826172,978.310852 5101.155762,1000.921509 5122.249512,1035.590088 
	C5154.026855,1087.815918 5154.949219,1162.561890 5123.690430,1214.997559 
	C5096.225586,1261.069824 5054.940430,1285.165405 5001.432617,1288.153076 
	C4976.529297,1289.543701 4952.135742,1286.816528 4929.088867,1276.682251 
	C4876.080078,1253.372803 4846.888672,1211.866455 4838.110352,1155.456909 
	C4833.433594,1125.401367 4835.495605,1095.613037 4845.615234,1066.744385 
	C4862.080566,1019.770996 4893.496582,987.626770 4941.773438,971.497131 
z"/>
<path fill="#FEFEFE" opacity="1.000000" stroke="none" 
	d="
M3316.127686,981.654419 
	C3368.623779,1012.052185 3394.515625,1057.919800 3397.901123,1116.904541 
	C3400.573242,1163.466675 3387.610596,1205.234253 3355.879150,1240.079102 
	C3328.098877,1270.584717 3293.177979,1286.466797 3251.888184,1288.248901 
	C3201.082275,1290.441650 3158.541992,1272.954834 3125.422852,1234.197266 
	C3103.820801,1208.917358 3092.176758,1179.087891 3089.009766,1146.093384 
	C3084.716553,1101.368530 3093.352539,1059.607300 3121.456787,1023.737915 
	C3156.939941,978.451599 3204.314453,959.955627 3261.301758,965.253906 
	C3280.419434,967.031433 3298.489258,972.328308 3316.127686,981.654419 
z"/>
<path fill="#FEFEFE" opacity="1.000000" stroke="none" 
	d="
M5618.540039,991.385986 
	C5648.746582,1017.697021 5662.539551,1051.424072 5668.378906,1090.216064 
	C5572.861816,1090.216064 5478.134766,1090.216064 5382.394531,1090.216064 
	C5382.941895,1086.844727 5383.257812,1083.692993 5383.979004,1080.636963 
	C5395.589355,1031.401855 5421.934570,993.536560 5469.587402,973.474182 
	C5503.505859,959.194214 5538.759277,957.982239 5574.292969,967.585693 
	C5590.624512,971.999634 5605.028320,980.148987 5618.540039,991.385986 
z"/>
<path fill="#FEFEFE" opacity="1.000000" stroke="none" 
	d="
M4566.414062,1242.390015 
	C4510.689941,1302.425781 4408.297852,1302.100708 4352.309570,1252.244751 
	C4321.180176,1224.525269 4304.476074,1189.591553 4300.206543,1148.571411 
	C4297.352051,1121.147949 4299.334473,1094.029541 4308.132812,1067.651367 
	C4328.947754,1005.244324 4384.336426,964.927856 4450.174805,964.164856 
	C4481.140625,963.806030 4510.472656,969.838257 4536.970215,986.479248 
	C4571.348145,1008.068970 4593.006348,1039.232422 4603.206543,1078.149658 
	C4611.988770,1111.654785 4611.643555,1145.378540 4602.228027,1178.853638 
	C4595.522949,1202.694702 4583.633789,1223.643066 4566.414062,1242.390015 
z"/>
</svg>