<svg width="615" height="836" viewBox="0 0 615 836" fill="none" xmlns="http://www.w3.org/2000/svg">
<g filter="url(#filter0_d_645_1321)">
<mask id="path-1-inside-1_645_1321" fill="white">
<path d="M581.077 108.277C581.077 98.7186 587.046 90.7199 595.04 88.7014C597.182 88.1606 599 86.4191 599 84.2099V70.7655C599 68.5563 597.196 66.807 595.014 66.4657C587.033 65.2177 581.077 60.0484 581.077 50.5C581.077 40.9463 587.04 34.163 595.027 32.4736C597.188 32.0165 599 30.2726 599 28.0635V16C599 13.7909 597.209 12 595 12H574.39C572.181 12 570.428 13.8055 570.037 15.9798C568.388 25.155 561.146 32.0635 552.463 32.0635C543.781 32.0635 536.542 25.155 534.893 15.9798C534.502 13.8055 532.75 12 530.54 12H519.384C517.175 12 515.422 13.8055 515.031 15.9798C513.383 25.155 506.144 32.0635 497.461 32.0635C488.778 32.0635 481.537 25.155 479.887 15.9798C479.496 13.8055 477.744 12 475.534 12H464.381C462.172 12 460.42 13.8055 460.029 15.9798C458.38 25.155 451.141 32.0635 442.458 32.0635C433.776 32.0635 426.537 25.155 424.888 15.9798C424.497 13.8055 422.745 12 420.535 12H409.382C407.173 12 405.421 13.8055 405.03 15.9798C403.38 25.155 396.139 32.0635 387.459 32.0635C378.777 32.0635 371.538 25.155 369.889 15.9798C369.498 13.8055 367.746 12 365.536 12H354.38C352.171 12 350.418 13.8055 350.027 15.9798C348.379 25.155 341.139 32.0635 332.457 32.0635C323.774 32.0635 316.535 25.155 314.886 15.9798C314.496 13.8055 312.743 12 310.534 12H299.381C297.172 12 295.419 13.8055 295.028 15.9798C293.38 25.155 286.14 32.0635 277.458 32.0635C268.775 32.0635 261.534 25.155 259.884 15.9798C259.493 13.8055 257.741 12 255.531 12H244.378C242.169 12 240.417 13.8055 240.026 15.9798C238.376 25.155 231.135 32.0635 222.455 32.0635C213.773 32.0635 206.534 25.155 204.885 15.9798C204.494 13.8055 202.742 12 200.532 12H189.376C187.167 12 185.414 13.8055 185.023 15.9798C183.374 25.155 176.132 32.0635 167.453 32.0635C158.77 32.0635 151.529 25.155 149.879 15.9798C149.488 13.8055 147.735 12 145.526 12H134.373C132.164 12 130.412 13.8055 130.021 15.9798C128.371 25.155 121.129 32.0635 112.447 32.0635C103.764 32.0635 96.5252 25.155 94.8763 15.9798C94.4855 13.8055 92.733 12 90.5238 12H79.3708C77.1617 12 75.4091 13.8055 75.0182 15.9798C73.3687 25.155 66.1269 32.0635 57.4443 32.0635C48.7617 32.0635 41.52 25.155 39.8704 15.9798C39.4795 13.8055 37.7269 12 35.5178 12H20C17.7909 12 16 13.7909 16 16V29.5687C16 31.7508 17.7642 33.4867 19.9085 33.8912C27.7882 35.3776 33.6489 41.0372 33.6489 50.5C33.6489 59.965 27.7898 65.0522 19.9116 66.3845C17.7607 66.7482 16 68.4862 16 70.6677V84.31C16 86.4922 17.7761 88.2222 19.8851 88.7827C27.7766 90.8801 33.6489 98.8017 33.6489 108.277C33.6489 117.753 27.7766 125.672 19.8851 127.768C17.7761 128.329 16 130.059 16 132.241V145.881C16 148.064 17.7761 149.794 19.8851 150.354C27.7766 152.451 33.6489 160.372 33.6489 169.845C33.6489 179.321 27.7758 187.24 19.8834 189.339C17.7751 189.899 16 191.629 16 193.811V207.453C16 209.635 17.7761 211.365 19.8851 211.925C27.7766 214.023 33.6489 221.944 33.6489 231.416C33.6489 240.892 27.7758 248.812 19.8834 250.91C17.7751 251.471 16 253.2 16 255.382V269.024C16 271.206 17.7761 272.936 19.8851 273.497C27.7766 275.594 33.6489 283.516 33.6489 292.991C33.6489 302.468 27.7758 310.387 19.8834 312.485C17.7751 313.046 16 314.776 16 316.957V330.599C16 332.782 17.7761 334.512 19.8851 335.072C27.7766 337.17 33.6489 345.091 33.6489 354.567C33.6489 364.042 27.7766 371.961 19.8851 374.058C17.7761 374.618 16 376.348 16 378.53V392.171C16 394.353 17.7761 396.083 19.8851 396.643C27.7766 398.741 33.6489 406.662 33.6489 416.134C33.6489 425.61 27.7766 433.529 19.8851 435.625C17.7761 436.186 16 437.916 16 440.098V453.738C16 455.92 17.7761 457.65 19.8851 458.211C27.7766 460.308 33.6489 468.23 33.6489 477.706C33.6489 487.181 27.7766 495.1 19.8851 497.197C17.7761 497.757 16 499.487 16 501.669V515.31C16 517.492 17.7761 519.222 19.8851 519.782C27.7766 521.88 33.6489 529.801 33.6489 539.273C33.6489 548.749 27.7758 556.669 19.8834 558.767C17.7751 559.328 16 561.057 16 563.239V576.881C16 579.063 17.7761 580.793 19.8851 581.354C27.7766 583.451 33.6489 591.373 33.6489 600.848C33.6489 610.324 27.7766 618.243 19.8851 620.339C17.7761 620.9 16 622.63 16 624.812V638.452C16 640.635 17.7761 642.365 19.8851 642.925C27.7766 645.023 33.6489 652.944 33.6489 662.42C33.6489 671.896 27.7758 679.815 19.8834 681.914C17.7751 682.474 16 684.204 16 686.385V700.028C16 702.21 17.7761 703.94 19.8851 704.5C27.7766 706.598 33.6489 714.519 33.6489 723.995C33.6489 733.471 27.7766 741.389 19.8851 743.486C17.7761 744.046 16 745.776 16 747.958V761.599C16 763.781 17.7608 765.52 19.9148 765.87C27.7913 767.147 33.6489 772.04 33.6489 781.5C33.6489 790.957 27.7997 791.042 19.9316 790.995C17.7501 790.982 16 792.748 16 794.93V812C16 814.209 17.7909 816 20 816H35.3104C37.5196 816 39.2722 814.195 39.6631 812.02C41.3126 802.845 48.5544 795.937 57.237 795.937C65.9192 795.937 73.158 802.847 74.8073 812.02C75.1983 814.195 76.9508 816 79.16 816H90.313C92.5221 816 94.2747 814.195 94.6656 812.02C96.3151 802.845 103.557 795.937 112.239 795.937C120.922 795.937 128.161 802.847 129.81 812.02C130.201 814.195 131.953 816 134.162 816H145.315C147.525 816 149.277 814.195 149.668 812.02C151.318 802.845 158.559 795.937 167.242 795.937C175.924 795.937 183.163 802.847 184.812 812.02C185.203 814.195 186.956 816 189.165 816H200.318C202.527 816 204.28 814.195 204.671 812.02C206.32 802.845 213.562 795.937 222.245 795.937C230.927 795.937 238.168 802.848 239.818 812.02C240.209 814.195 241.962 816 244.171 816H255.324C257.533 816 259.286 814.195 259.677 812.02C261.326 802.845 268.568 795.937 277.251 795.937C285.933 795.937 293.172 802.847 294.821 812.02C295.212 814.195 296.964 816 299.174 816H310.327C312.536 816 314.288 814.195 314.679 812.02C316.329 802.845 323.57 795.937 332.253 795.937C340.935 795.937 348.174 802.847 349.823 812.02C350.214 814.195 351.967 816 354.176 816H365.329C367.538 816 369.291 814.195 369.682 812.02C371.331 802.845 378.573 795.937 387.252 795.937C395.934 795.937 403.176 802.848 404.826 812.02C405.217 814.195 406.969 816 409.179 816H420.335C422.544 816 424.297 814.195 424.688 812.02C426.337 802.845 433.576 795.937 442.258 795.937C450.94 795.937 458.179 802.847 459.828 812.02C460.219 814.195 461.972 816 464.181 816H475.334C477.543 816 479.296 814.195 479.687 812.02C481.336 802.845 488.578 795.937 497.257 795.937C505.939 795.937 513.178 802.847 514.827 812.02C515.218 814.195 516.971 816 519.18 816H530.337C532.546 816 534.298 814.195 534.689 812.02C536.339 802.845 543.58 795.937 552.26 795.937C560.942 795.937 568.181 802.847 569.83 812.02C570.221 814.195 571.973 816 574.183 816H595C597.209 816 599 814.209 599 812V799.937C599 797.727 597.197 795.977 595.012 795.654C587.032 794.473 581.077 789.548 581.077 780C581.077 770.455 587.029 766.595 595.006 765.708C597.201 765.463 599 763.708 599 761.499V748.059C599 745.849 597.182 744.108 595.04 743.567C587.046 741.549 581.077 733.55 581.077 723.995C581.077 714.436 587.046 706.441 595.04 704.423C597.182 703.882 599 702.141 599 699.932V686.487C599 684.278 597.182 682.536 595.04 681.996C587.046 679.977 581.077 671.979 581.077 662.424C581.077 652.868 587.046 644.87 595.04 642.852C597.182 642.311 599 640.569 599 638.36V624.92C599 622.711 597.182 620.969 595.04 620.428C587.046 618.411 581.077 610.415 581.077 600.856C581.077 591.298 587.046 583.302 595.04 581.284C597.182 580.743 599 579.002 599 576.793V563.348C599 561.139 597.182 559.398 595.04 558.857C587.046 556.838 581.077 548.84 581.077 539.285C581.077 529.726 587.046 521.73 595.04 519.713C597.182 519.172 599 517.431 599 515.221V501.781C599 499.572 597.182 497.83 595.04 497.289C587.046 495.271 581.077 487.273 581.077 477.717C581.077 468.162 587.046 460.164 595.04 458.145C597.182 457.604 599 455.863 599 453.654V440.214C599 438.004 597.182 436.263 595.04 435.722C587.046 433.704 581.077 425.709 581.077 416.15C581.077 406.591 587.046 398.592 595.04 396.574C597.182 396.033 599 394.292 599 392.082V378.642C599 376.433 597.182 374.691 595.04 374.151C587.046 372.132 581.077 364.134 581.077 354.579C581.077 345.02 587.046 337.021 595.04 335.003C597.182 334.462 599 332.72 599 330.511V317.071C599 314.862 597.182 313.12 595.04 312.579C587.046 310.561 581.077 302.562 581.077 293.007C581.077 283.452 587.046 275.454 595.04 273.435C597.182 272.894 599 271.153 599 268.944V255.503C599 253.294 597.182 251.553 595.04 251.012C587.046 248.993 581.077 240.994 581.077 231.436C581.077 221.877 587.046 213.881 595.04 211.864C597.182 211.323 599 209.581 599 207.372V193.932C599 191.723 597.182 189.981 595.04 189.44C587.046 187.422 581.077 179.424 581.077 169.868C581.077 160.31 587.046 152.311 595.04 150.292C597.182 149.752 599 148.01 599 145.801V132.353C599 130.147 597.187 128.406 595.048 127.864C587.052 125.837 581.077 117.839 581.077 108.277Z"/>
</mask>
<path d="M581.077 108.277C581.077 98.7186 587.046 90.7199 595.04 88.7014C597.182 88.1606 599 86.4191 599 84.2099V70.7655C599 68.5563 597.196 66.807 595.014 66.4657C587.033 65.2177 581.077 60.0484 581.077 50.5C581.077 40.9463 587.04 34.163 595.027 32.4736C597.188 32.0165 599 30.2726 599 28.0635V16C599 13.7909 597.209 12 595 12H574.39C572.181 12 570.428 13.8055 570.037 15.9798C568.388 25.155 561.146 32.0635 552.463 32.0635C543.781 32.0635 536.542 25.155 534.893 15.9798C534.502 13.8055 532.75 12 530.54 12H519.384C517.175 12 515.422 13.8055 515.031 15.9798C513.383 25.155 506.144 32.0635 497.461 32.0635C488.778 32.0635 481.537 25.155 479.887 15.9798C479.496 13.8055 477.744 12 475.534 12H464.381C462.172 12 460.42 13.8055 460.029 15.9798C458.38 25.155 451.141 32.0635 442.458 32.0635C433.776 32.0635 426.537 25.155 424.888 15.9798C424.497 13.8055 422.745 12 420.535 12H409.382C407.173 12 405.421 13.8055 405.03 15.9798C403.38 25.155 396.139 32.0635 387.459 32.0635C378.777 32.0635 371.538 25.155 369.889 15.9798C369.498 13.8055 367.746 12 365.536 12H354.38C352.171 12 350.418 13.8055 350.027 15.9798C348.379 25.155 341.139 32.0635 332.457 32.0635C323.774 32.0635 316.535 25.155 314.886 15.9798C314.496 13.8055 312.743 12 310.534 12H299.381C297.172 12 295.419 13.8055 295.028 15.9798C293.38 25.155 286.14 32.0635 277.458 32.0635C268.775 32.0635 261.534 25.155 259.884 15.9798C259.493 13.8055 257.741 12 255.531 12H244.378C242.169 12 240.417 13.8055 240.026 15.9798C238.376 25.155 231.135 32.0635 222.455 32.0635C213.773 32.0635 206.534 25.155 204.885 15.9798C204.494 13.8055 202.742 12 200.532 12H189.376C187.167 12 185.414 13.8055 185.023 15.9798C183.374 25.155 176.132 32.0635 167.453 32.0635C158.77 32.0635 151.529 25.155 149.879 15.9798C149.488 13.8055 147.735 12 145.526 12H134.373C132.164 12 130.412 13.8055 130.021 15.9798C128.371 25.155 121.129 32.0635 112.447 32.0635C103.764 32.0635 96.5252 25.155 94.8763 15.9798C94.4855 13.8055 92.733 12 90.5238 12H79.3708C77.1617 12 75.4091 13.8055 75.0182 15.9798C73.3687 25.155 66.1269 32.0635 57.4443 32.0635C48.7617 32.0635 41.52 25.155 39.8704 15.9798C39.4795 13.8055 37.7269 12 35.5178 12H20C17.7909 12 16 13.7909 16 16V29.5687C16 31.7508 17.7642 33.4867 19.9085 33.8912C27.7882 35.3776 33.6489 41.0372 33.6489 50.5C33.6489 59.965 27.7898 65.0522 19.9116 66.3845C17.7607 66.7482 16 68.4862 16 70.6677V84.31C16 86.4922 17.7761 88.2222 19.8851 88.7827C27.7766 90.8801 33.6489 98.8017 33.6489 108.277C33.6489 117.753 27.7766 125.672 19.8851 127.768C17.7761 128.329 16 130.059 16 132.241V145.881C16 148.064 17.7761 149.794 19.8851 150.354C27.7766 152.451 33.6489 160.372 33.6489 169.845C33.6489 179.321 27.7758 187.24 19.8834 189.339C17.7751 189.899 16 191.629 16 193.811V207.453C16 209.635 17.7761 211.365 19.8851 211.925C27.7766 214.023 33.6489 221.944 33.6489 231.416C33.6489 240.892 27.7758 248.812 19.8834 250.91C17.7751 251.471 16 253.2 16 255.382V269.024C16 271.206 17.7761 272.936 19.8851 273.497C27.7766 275.594 33.6489 283.516 33.6489 292.991C33.6489 302.468 27.7758 310.387 19.8834 312.485C17.7751 313.046 16 314.776 16 316.957V330.599C16 332.782 17.7761 334.512 19.8851 335.072C27.7766 337.17 33.6489 345.091 33.6489 354.567C33.6489 364.042 27.7766 371.961 19.8851 374.058C17.7761 374.618 16 376.348 16 378.53V392.171C16 394.353 17.7761 396.083 19.8851 396.643C27.7766 398.741 33.6489 406.662 33.6489 416.134C33.6489 425.61 27.7766 433.529 19.8851 435.625C17.7761 436.186 16 437.916 16 440.098V453.738C16 455.92 17.7761 457.65 19.8851 458.211C27.7766 460.308 33.6489 468.23 33.6489 477.706C33.6489 487.181 27.7766 495.1 19.8851 497.197C17.7761 497.757 16 499.487 16 501.669V515.31C16 517.492 17.7761 519.222 19.8851 519.782C27.7766 521.88 33.6489 529.801 33.6489 539.273C33.6489 548.749 27.7758 556.669 19.8834 558.767C17.7751 559.328 16 561.057 16 563.239V576.881C16 579.063 17.7761 580.793 19.8851 581.354C27.7766 583.451 33.6489 591.373 33.6489 600.848C33.6489 610.324 27.7766 618.243 19.8851 620.339C17.7761 620.9 16 622.63 16 624.812V638.452C16 640.635 17.7761 642.365 19.8851 642.925C27.7766 645.023 33.6489 652.944 33.6489 662.42C33.6489 671.896 27.7758 679.815 19.8834 681.914C17.7751 682.474 16 684.204 16 686.385V700.028C16 702.21 17.7761 703.94 19.8851 704.5C27.7766 706.598 33.6489 714.519 33.6489 723.995C33.6489 733.471 27.7766 741.389 19.8851 743.486C17.7761 744.046 16 745.776 16 747.958V761.599C16 763.781 17.7608 765.52 19.9148 765.87C27.7913 767.147 33.6489 772.04 33.6489 781.5C33.6489 790.957 27.7997 791.042 19.9316 790.995C17.7501 790.982 16 792.748 16 794.93V812C16 814.209 17.7909 816 20 816H35.3104C37.5196 816 39.2722 814.195 39.6631 812.02C41.3126 802.845 48.5544 795.937 57.237 795.937C65.9192 795.937 73.158 802.847 74.8073 812.02C75.1983 814.195 76.9508 816 79.16 816H90.313C92.5221 816 94.2747 814.195 94.6656 812.02C96.3151 802.845 103.557 795.937 112.239 795.937C120.922 795.937 128.161 802.847 129.81 812.02C130.201 814.195 131.953 816 134.162 816H145.315C147.525 816 149.277 814.195 149.668 812.02C151.318 802.845 158.559 795.937 167.242 795.937C175.924 795.937 183.163 802.847 184.812 812.02C185.203 814.195 186.956 816 189.165 816H200.318C202.527 816 204.28 814.195 204.671 812.02C206.32 802.845 213.562 795.937 222.245 795.937C230.927 795.937 238.168 802.848 239.818 812.02C240.209 814.195 241.962 816 244.171 816H255.324C257.533 816 259.286 814.195 259.677 812.02C261.326 802.845 268.568 795.937 277.251 795.937C285.933 795.937 293.172 802.847 294.821 812.02C295.212 814.195 296.964 816 299.174 816H310.327C312.536 816 314.288 814.195 314.679 812.02C316.329 802.845 323.57 795.937 332.253 795.937C340.935 795.937 348.174 802.847 349.823 812.02C350.214 814.195 351.967 816 354.176 816H365.329C367.538 816 369.291 814.195 369.682 812.02C371.331 802.845 378.573 795.937 387.252 795.937C395.934 795.937 403.176 802.848 404.826 812.02C405.217 814.195 406.969 816 409.179 816H420.335C422.544 816 424.297 814.195 424.688 812.02C426.337 802.845 433.576 795.937 442.258 795.937C450.94 795.937 458.179 802.847 459.828 812.02C460.219 814.195 461.972 816 464.181 816H475.334C477.543 816 479.296 814.195 479.687 812.02C481.336 802.845 488.578 795.937 497.257 795.937C505.939 795.937 513.178 802.847 514.827 812.02C515.218 814.195 516.971 816 519.18 816H530.337C532.546 816 534.298 814.195 534.689 812.02C536.339 802.845 543.58 795.937 552.26 795.937C560.942 795.937 568.181 802.847 569.83 812.02C570.221 814.195 571.973 816 574.183 816H595C597.209 816 599 814.209 599 812V799.937C599 797.727 597.197 795.977 595.012 795.654C587.032 794.473 581.077 789.548 581.077 780C581.077 770.455 587.029 766.595 595.006 765.708C597.201 765.463 599 763.708 599 761.499V748.059C599 745.849 597.182 744.108 595.04 743.567C587.046 741.549 581.077 733.55 581.077 723.995C581.077 714.436 587.046 706.441 595.04 704.423C597.182 703.882 599 702.141 599 699.932V686.487C599 684.278 597.182 682.536 595.04 681.996C587.046 679.977 581.077 671.979 581.077 662.424C581.077 652.868 587.046 644.87 595.04 642.852C597.182 642.311 599 640.569 599 638.36V624.92C599 622.711 597.182 620.969 595.04 620.428C587.046 618.411 581.077 610.415 581.077 600.856C581.077 591.298 587.046 583.302 595.04 581.284C597.182 580.743 599 579.002 599 576.793V563.348C599 561.139 597.182 559.398 595.04 558.857C587.046 556.838 581.077 548.84 581.077 539.285C581.077 529.726 587.046 521.73 595.04 519.713C597.182 519.172 599 517.431 599 515.221V501.781C599 499.572 597.182 497.83 595.04 497.289C587.046 495.271 581.077 487.273 581.077 477.717C581.077 468.162 587.046 460.164 595.04 458.145C597.182 457.604 599 455.863 599 453.654V440.214C599 438.004 597.182 436.263 595.04 435.722C587.046 433.704 581.077 425.709 581.077 416.15C581.077 406.591 587.046 398.592 595.04 396.574C597.182 396.033 599 394.292 599 392.082V378.642C599 376.433 597.182 374.691 595.04 374.151C587.046 372.132 581.077 364.134 581.077 354.579C581.077 345.02 587.046 337.021 595.04 335.003C597.182 334.462 599 332.72 599 330.511V317.071C599 314.862 597.182 313.12 595.04 312.579C587.046 310.561 581.077 302.562 581.077 293.007C581.077 283.452 587.046 275.454 595.04 273.435C597.182 272.894 599 271.153 599 268.944V255.503C599 253.294 597.182 251.553 595.04 251.012C587.046 248.993 581.077 240.994 581.077 231.436C581.077 221.877 587.046 213.881 595.04 211.864C597.182 211.323 599 209.581 599 207.372V193.932C599 191.723 597.182 189.981 595.04 189.44C587.046 187.422 581.077 179.424 581.077 169.868C581.077 160.31 587.046 152.311 595.04 150.292C597.182 149.752 599 148.01 599 145.801V132.353C599 130.147 597.187 128.406 595.048 127.864C587.052 125.837 581.077 117.839 581.077 108.277Z" stroke="#8A8A8A" stroke-opacity="0.18" stroke-width="2" shape-rendering="crispEdges" mask="url(#path-1-inside-1_645_1321)"/>
</g>
<defs>
<filter id="filter0_d_645_1321" x="0" y="0" width="615" height="836" filterUnits="userSpaceOnUse" color-interpolation-filters="sRGB">
<feFlood flood-opacity="0" result="BackgroundImageFix"/>
<feColorMatrix in="SourceAlpha" type="matrix" values="0 0 0 0 0 0 0 0 0 0 0 0 0 0 0 0 0 0 127 0" result="hardAlpha"/>
<feOffset dy="4"/>
<feGaussianBlur stdDeviation="8"/>
<feComposite in2="hardAlpha" operator="out"/>
<feColorMatrix type="matrix" values="0 0 0 0 0 0 0 0 0 0 0 0 0 0 0 0 0 0 1 0"/>
<feBlend mode="normal" in2="BackgroundImageFix" result="effect1_dropShadow_645_1321"/>
<feBlend mode="normal" in="SourceGraphic" in2="effect1_dropShadow_645_1321" result="shape"/>
</filter>
</defs>
</svg>
