<svg width="24" height="24" viewBox="0 0 24 24" fill="none" xmlns="http://www.w3.org/2000/svg">
<mask id="mask0_705_155" style="mask-type:alpha" maskUnits="userSpaceOnUse" x="0" y="0" width="24" height="24">
<rect x="0.19873" y="0.376709" width="22.9827" height="22.9827" fill="#D9D9D9"/>
</mask>
<g mask="url(#mask0_705_155)">
<path d="M3.55078 8.02842H19.8302V16.4535C19.8302 17.1747 19.5777 17.7878 19.0727 18.2926C18.5679 18.7976 17.9548 19.05 17.2336 19.05H6.14734C5.4261 19.05 4.81307 18.7976 4.30825 18.2926C3.80327 17.7878 3.55078 17.1747 3.55078 16.4535V8.02842ZM4.9872 9.4646V16.4535C4.9872 16.7821 5.09836 17.0577 5.32069 17.2801C5.54317 17.5025 5.81872 17.6136 6.14734 17.6136H17.2336C17.5622 17.6136 17.8378 17.5025 18.0603 17.2801C18.2826 17.0577 18.3937 16.7821 18.3937 16.4535V9.4646H4.9872ZM3.55078 6.88647V5.45006H9.05704V4.60305C9.05704 4.35519 9.13964 4.14747 9.30483 3.97988C9.46985 3.81214 9.67726 3.72827 9.92703 3.72827H13.4539C13.7037 3.72827 13.9111 3.81214 14.0761 3.97988C14.2413 4.14747 14.3239 4.35519 14.3239 4.60305V5.45006H19.8302V6.88647H3.55078Z" fill="#00252E"/>
</g>
</svg>
