<svg width="24" height="24" viewBox="0 0 24 24" fill="none" xmlns="http://www.w3.org/2000/svg">
<mask id="mask0_705_146" style="mask-type:alpha" maskUnits="userSpaceOnUse" x="0" y="0" width="24" height="24">
<rect x="0.286133" y="0.376709" width="22.9827" height="22.9827" fill="#D9D9D9"/>
</mask>
<g mask="url(#mask0_705_146)">
<path d="M4.59521 15.0356V6.12239C4.59521 5.38694 4.79472 4.79857 5.19372 4.35727C5.59273 3.91598 6.12524 3.57897 6.79126 3.34628C7.45727 3.11358 8.22304 2.95948 9.08856 2.88399C9.95408 2.8085 10.8503 2.77075 11.7773 2.77075C12.7692 2.77075 13.7014 2.8085 14.5738 2.88399C15.446 2.95948 16.2078 3.11358 16.8591 3.34628C17.5104 3.57897 18.0233 3.91598 18.3977 4.35727C18.7722 4.79857 18.9594 5.38694 18.9594 6.12239V15.0356C18.9594 15.8912 18.6638 16.6146 18.0726 17.2058C17.4815 17.7969 16.7581 18.0925 15.9024 18.0925L17.3389 19.5289V20.0077H15.9762L14.061 18.0925H9.49363L7.57841 20.0077H6.21573V19.5289L7.65215 18.0925C6.79652 18.0925 6.07313 17.7969 5.48196 17.2058C4.8908 16.6146 4.59521 15.8912 4.59521 15.0356ZM11.7773 4.20717C9.99343 4.20717 8.69203 4.31921 7.87312 4.54329C7.0542 4.76737 6.52879 5.06048 6.29689 5.42262H17.3168C17.1141 5.04085 16.6009 4.74279 15.7772 4.52845C14.9534 4.31426 13.6201 4.20717 11.7773 4.20717ZM6.03163 10.4316H11.0591V6.85903H6.03163V10.4316ZM12.4955 10.4316H17.523V6.85903H12.4955V10.4316ZM8.42566 15.5144C8.7854 15.5144 9.08402 15.3956 9.3215 15.1579C9.55915 14.9204 9.67797 14.6218 9.67797 14.2621C9.67797 13.9023 9.55915 13.6037 9.3215 13.3662C9.08402 13.1286 8.7854 13.0098 8.42566 13.0098C8.06592 13.0098 7.7673 13.1286 7.52981 13.3662C7.29217 13.6037 7.17334 13.9023 7.17334 14.2621C7.17334 14.6218 7.29217 14.9204 7.52981 15.1579C7.7673 15.3956 8.06592 15.5144 8.42566 15.5144ZM15.1289 15.5144C15.4887 15.5144 15.7873 15.3956 16.0248 15.1579C16.2624 14.9204 16.3812 14.6218 16.3812 14.2621C16.3812 13.9023 16.2624 13.6037 16.0248 13.3662C15.7873 13.1286 15.4887 13.0098 15.1289 13.0098C14.7692 13.0098 14.4706 13.1286 14.2331 13.3662C13.9954 13.6037 13.8766 13.9023 13.8766 14.2621C13.8766 14.6218 13.9954 14.9204 14.2331 15.1579C14.4706 15.3956 14.7692 15.5144 15.1289 15.5144ZM7.65215 16.6561H15.9024C16.3603 16.6561 16.7449 16.5005 17.0561 16.1893C17.3673 15.878 17.523 15.4935 17.523 15.0356V11.8681H6.03163V15.0356C6.03163 15.4935 6.18724 15.878 6.49847 16.1893C6.80969 16.5005 7.19425 16.6561 7.65215 16.6561Z" fill="#00252E"/>
</g>
</svg>
