<svg width="26" height="26" viewBox="0 0 26 26" fill="none" xmlns="http://www.w3.org/2000/svg">
<mask id="mask0_705_168" style="mask-type:alpha" maskUnits="userSpaceOnUse" x="0" y="0" width="26" height="26">
<rect x="0.83252" y="0.346191" width="24.8895" height="24.8895" fill="#D9D9D9"/>
</mask>
<g mask="url(#mask0_705_168)">
<path d="M11.1548 21.6956L8.78767 17.2642L4.34619 14.887L5.8279 13.4211L9.49754 14.0493L12.4013 11.1456L4.40193 7.73518L6.21083 5.9045L15.9333 7.59751L19.1583 4.36265C19.5026 4.01834 19.927 3.84619 20.4316 3.84619C20.9361 3.84619 21.3606 4.01834 21.7051 4.36265C22.0494 4.70713 22.2215 5.12895 22.2215 5.62812C22.2215 6.12747 22.0494 6.5493 21.7051 6.8936L18.4541 10.1344L20.1474 19.8408L18.3224 21.6658L14.9063 13.6664L12.0026 16.5702L12.6367 20.2139L11.1548 21.6956Z" fill="#00252E"/>
</g>
</svg>
