<!DOCTYPE svg PUBLIC "-//W3C//DTD SVG 1.1//EN" "http://www.w3.org/Graphics/SVG/1.1/DTD/svg11.dtd">
<!-- Uploaded to: SVG Repo, www.svgrepo.com, Transformed by: SVG Repo Mixer Tools -->
<svg version="1.1" id="Layer_1" xmlns="http://www.w3.org/2000/svg" xmlns:xlink="http://www.w3.org/1999/xlink" viewBox="0 0 512 512" xml:space="preserve" width="800px" height="800px" fill="#000000">
<g id="SVGRepo_bgCarrier" stroke-width="0"/>
<g id="SVGRepo_tracerCarrier" stroke-linecap="round" stroke-linejoin="round"/>
<g id="SVGRepo_iconCarrier"> <g> <polygon style="fill:#ff9e9e;" points="427.82,157.598 352.923,120.519 352.923,31.677 427.82,31.677 "/> <polygon style="fill:#ff9e9e;" points="65.813,181.685 65.813,510.242 446.187,510.242 446.187,181.685 256,87.381 "/> </g> <path style="fill:#7DD2F0;" d="M256,175.706L256,175.706c-26.813,0-48.55,21.737-48.55,48.55v48.55h97.101v-48.55 C304.55,197.443,282.813,175.706,256,175.706z"/> <rect x="207.446" y="326.829" style="fill:#1dddc7;" width="97.098" height="183.406"/> <polygon style="opacity:0.1;enable-background:new ;" points="65.813,181.685 65.813,258.997 256,159.535 446.187,258.997 446.187,181.685 256,87.381 "/> <polygon style="fill:#1dddc7;" points="483.36,236.594 256,117.691 28.64,236.594 0,181.832 256,47.953 512,181.832 "/> <rect x="352.92" y="31.677" style="opacity:0.1;enable-background:new ;" width="74.9" height="58.672"/> <rect x="334.554" y="1.758" style="fill:#1dddc7;" width="111.633" height="51.514"/> </g>
</svg>