<!DOCTYPE svg PUBLIC "-//W3C//DTD SVG 1.1//EN" "http://www.w3.org/Graphics/SVG/1.1/DTD/svg11.dtd">
<!-- Uploaded to: SVG Repo, www.svgrepo.com, Transformed by: SVG Repo Mixer Tools -->
<svg version="1.1" id="Layer_1" xmlns="http://www.w3.org/2000/svg" xmlns:xlink="http://www.w3.org/1999/xlink" viewBox="0 0 512 512" xml:space="preserve" width="800px" height="800px" fill="#030303" stroke="#030303">
<g id="SVGRepo_bgCarrier" stroke-width="0"/>
<g id="SVGRepo_tracerCarrier" stroke-linecap="round" stroke-linejoin="round"/>
<g id="SVGRepo_iconCarrier"> <polygon style="fill:#1dddc7;" points="208.47,123.442 240.323,77.18 420.663,77.18 452.516,123.442 "/> <rect x="55.38" y="87.426" style="fill:#FF1A1A;" width="50.155" height="36.008"/> <path style="fill:#ffc2c2;" d="M126.527,123.44H41.796c-17.312,0-31.347,13.992-31.347,31.251v248.878 c0,17.26,14.035,31.251,31.347,31.251h428.408c17.312,0,31.347-13.992,31.347-31.251V154.69c0-17.26-14.035-31.251-31.347-31.251 h-84.731H126.527z"/> <circle style="fill:#FFFFFF;" cx="330.491" cy="279.134" r="114.719"/> <circle style="fill:#1dddc7;" cx="330.491" cy="279.134" r="77.199"/> <path d="M330.493,153.956c-69.021,0-125.172,56.153-125.172,125.174c0,69.02,56.152,125.171,125.172,125.171 s125.173-56.152,125.173-125.171C455.665,210.109,399.514,153.956,330.493,153.956z M330.493,383.403 c-57.497,0-104.275-46.777-104.275-104.273c0-57.498,46.778-104.276,104.275-104.276s104.275,46.778,104.275,104.276 C434.767,336.626,387.989,383.403,330.493,383.403z"/> <path d="M330.493,191.48c-48.33,0-87.648,39.32-87.648,87.649c0,48.329,39.318,87.647,87.648,87.647s87.648-39.318,87.648-87.647 C418.141,230.8,378.823,191.48,330.493,191.48z M330.493,345.878c-36.807,0-66.75-29.944-66.75-66.749 c0-36.807,29.944-66.751,66.75-66.751s66.75,29.945,66.75,66.751C397.243,315.935,367.299,345.878,330.493,345.878z"/> <path d="M330.493,247.209c7.16,0,13.923,2.314,19.562,6.694c1.905,1.481,4.162,2.197,6.402,2.197c3.117,0,6.2-1.389,8.259-4.041 c3.54-4.558,2.716-11.122-1.843-14.662c-9.337-7.253-20.534-11.086-32.379-11.086c-5.77,0-10.449,4.678-10.449,10.449 S324.723,247.209,330.493,247.209z"/> <path d="M362.413,279.129c0,17.601-14.319,31.921-31.921,31.921c-17.601,0-31.921-14.319-31.921-31.921 c0-5.771-4.679-10.449-10.449-10.449s-10.449,4.678-10.449,10.449c0,29.123,23.694,52.819,52.819,52.819 s52.819-23.694,52.819-52.819c0-5.771-4.678-10.449-10.449-10.449C367.091,268.68,362.413,273.358,362.413,279.129z"/> <path d="M65.829,208.515c11.523,0,20.898-9.375,20.898-20.898s-9.375-20.898-20.898-20.898s-20.898,9.375-20.898,20.898 S54.305,208.515,65.829,208.515z"/> <path d="M470.204,112.991h-12.198l-28.737-41.735c-1.95-2.833-5.168-4.523-8.606-4.523h-180.34c-3.438,0-6.656,1.692-8.606,4.523 l-28.738,41.736h-86.996v-25.56c0-5.771-4.679-10.449-10.449-10.449H55.38c-5.77,0-10.449,4.678-10.449,10.449v25.559h-3.135 C18.75,112.991,0,131.697,0,154.69v248.878c0,22.993,18.75,41.7,41.796,41.7h428.408c23.046,0,41.796-18.707,41.796-41.7V154.69 C512,131.697,493.25,112.991,470.204,112.991z M245.815,87.629h169.356l17.463,25.361H228.352L245.815,87.629z M65.829,97.88h29.257 v15.11H65.829V97.88z M491.102,403.568c0,11.471-9.375,20.802-20.898,20.802H41.796c-11.523,0-20.898-9.332-20.898-20.802V154.69 c0-11.471,9.375-20.802,20.898-20.802c0,0,410.713,0.003,410.729,0.003c0.027,0,0.056-0.003,0.084-0.003h17.595 c11.523,0,20.898,9.332,20.898,20.802V403.568z"/> <path d="M181.018,275.667h-4.678c-5.771,0-10.449,4.678-10.449,10.449c0,5.771,4.678,10.449,10.449,10.449h4.678 c5.77,0,10.449-4.678,10.449-10.449S186.789,275.667,181.018,275.667z"/> <path d="M142.537,275.667H55.38c-5.77,0-10.449,4.678-10.449,10.449c0,5.771,4.679,10.449,10.449,10.449h87.157 c5.771,0,10.449-4.678,10.449-10.449S148.308,275.667,142.537,275.667z"/> <path d="M181.018,317.549h-4.678c-5.771,0-10.449,4.678-10.449,10.449c0,5.771,4.678,10.449,10.449,10.449h4.678 c5.77,0,10.449-4.678,10.449-10.449C191.467,322.227,186.789,317.549,181.018,317.549z"/> <path d="M142.537,317.549H55.38c-5.77,0-10.449,4.678-10.449,10.449c0,5.771,4.679,10.449,10.449,10.449h87.157 c5.771,0,10.449-4.678,10.449-10.449C152.986,322.227,148.308,317.549,142.537,317.549z"/> <path d="M181.018,359.432h-4.678c-5.771,0-10.449,4.678-10.449,10.449s4.678,10.449,10.449,10.449h4.678 c5.77,0,10.449-4.678,10.449-10.449S186.789,359.432,181.018,359.432z"/> <path d="M142.537,359.432H55.38c-5.77,0-10.449,4.678-10.449,10.449S49.61,380.33,55.38,380.33h87.157 c5.771,0,10.449-4.678,10.449-10.449S148.308,359.432,142.537,359.432z"/> </g>
</svg>