<svg width="17" height="14" viewBox="0 0 17 14" fill="none" xmlns="http://www.w3.org/2000/svg">
<path d="M16.5732 1.72112C15.9517 1.99602 15.2957 2.16784 14.6051 2.27093C15.2957 1.85857 15.8481 1.20568 16.0898 0.415343C15.4338 0.793332 14.7087 1.06823 13.9146 1.24005C13.2931 0.587156 12.3954 0.174805 11.4286 0.174805C9.56413 0.174805 8.04491 1.68676 8.04491 3.54234C8.04491 3.81724 8.07944 4.05778 8.1485 4.29832C5.35177 4.16087 2.83126 2.82073 1.13941 0.758969C0.863188 1.27441 0.690551 1.82421 0.690551 2.44274C0.690551 3.61107 1.27752 4.64195 2.20976 5.26047C1.65732 5.22611 1.13941 5.08866 0.656023 4.84812V4.88248C0.656023 6.53189 1.82996 7.9064 3.3837 8.21566C3.10748 8.28438 2.79673 8.31875 2.48598 8.31875C2.27882 8.31875 2.03712 8.28438 1.82996 8.25002C2.27882 9.59017 3.52181 10.5867 5.00649 10.5867C3.83256 11.4801 2.3824 12.0299 0.794133 12.0299C0.517913 12.0299 0.241693 12.0299 0 11.9955C1.51921 12.9577 3.28012 13.5075 5.21366 13.5075C11.4631 13.5075 14.8814 8.35311 14.8814 3.88597C14.8814 3.74852 14.8814 3.5767 14.8814 3.43925C15.5374 2.99254 16.1244 2.40838 16.5732 1.72112Z" fill="#E7E7E7"/>
</svg>
