<svg width="21" height="21" viewBox="0 0 21 21" fill="none" xmlns="http://www.w3.org/2000/svg">
<path d="M10.1393 1.97662C12.822 1.97662 13.1397 1.98662 14.1995 2.03472C14.8366 2.04248 15.4678 2.15892 16.0654 2.37899C16.4988 2.54533 16.8924 2.80015 17.2209 3.12705C17.5494 3.45394 17.8054 3.84566 17.9725 4.27699C18.1937 4.87178 18.3107 5.4999 18.3185 6.13405C18.3663 7.18876 18.3768 7.50493 18.3768 10.1748C18.3768 12.8447 18.3668 13.1609 18.3185 14.2156C18.3107 14.8497 18.1937 15.4778 17.9725 16.0726C17.8054 16.504 17.5494 16.8957 17.2209 17.2226C16.8924 17.5495 16.4988 17.8043 16.0654 17.9706C15.4678 18.1907 14.8366 18.3071 14.1995 18.3149C13.1402 18.3625 12.8225 18.373 10.1393 18.373C7.45614 18.373 7.13845 18.363 6.07916 18.3149C5.44197 18.3071 4.81083 18.1907 4.21319 17.9706C3.77979 17.8043 3.38619 17.5495 3.05773 17.2226C2.72927 16.8957 2.47322 16.504 2.30608 16.0726C2.08496 15.4778 1.96795 14.8497 1.96016 14.2156C1.91231 13.1609 1.90178 12.8447 1.90178 10.1748C1.90178 7.50493 1.91183 7.18876 1.96016 6.13405C1.96795 5.4999 2.08496 4.87178 2.30608 4.27699C2.47322 3.84566 2.72927 3.45394 3.05773 3.12705C3.38619 2.80015 3.77979 2.54533 4.21319 2.37899C4.81083 2.15892 5.44197 2.04248 6.07916 2.03472C7.13893 1.9871 7.45662 1.97662 10.1393 1.97662ZM10.1393 0.174805C7.41213 0.174805 7.0686 0.186233 5.99686 0.234802C5.16294 0.25131 4.33787 0.408451 3.55675 0.699542C2.88668 0.950799 2.27976 1.34454 1.77834 1.8533C1.26669 2.3525 0.870715 2.95686 0.618095 3.62416C0.325607 4.40156 0.167712 5.22268 0.151125 6.05262C0.10328 7.11828 0.0917969 7.46017 0.0917969 10.1743C0.0917969 12.8885 0.10328 13.2304 0.152082 14.297C0.168669 15.1269 0.326564 15.9481 0.619052 16.7254C0.871392 17.3927 1.26703 17.997 1.77834 18.4963C2.28004 19.0052 2.88729 19.3989 3.55771 19.6501C4.33883 19.9412 5.1639 20.0983 5.99782 20.1148C7.06955 20.1624 7.41165 20.1748 10.1403 20.1748C12.8689 20.1748 13.211 20.1634 14.2827 20.1148C15.1166 20.0983 15.9417 19.9412 16.7228 19.6501C17.3901 19.3927 17.996 18.9995 18.5018 18.4958C19.0077 17.992 19.4023 17.3887 19.6605 16.7245C19.953 15.9471 20.1109 15.126 20.1275 14.296C20.1753 13.2304 20.1868 12.8885 20.1868 10.1743C20.1868 7.46017 20.1753 7.11828 20.1265 6.05167C20.1099 5.22173 19.9521 4.4006 19.6596 3.62321C19.4072 2.956 19.0116 2.35164 18.5003 1.85234C17.9986 1.34347 17.3913 0.949724 16.7209 0.698589C15.9398 0.407499 15.1147 0.250357 14.2808 0.23385C13.21 0.186233 12.8665 0.174805 10.1393 0.174805Z" fill="#E7E7E7"/>
<path d="M10.1377 5.03955C9.11719 5.03955 8.11962 5.34071 7.27113 5.90495C6.42263 6.46919 5.7613 7.27117 5.37078 8.20947C4.98026 9.14777 4.87808 10.1802 5.07717 11.1763C5.27626 12.1724 5.76766 13.0874 6.48925 13.8055C7.21084 14.5237 8.1302 15.0127 9.13107 15.2109C10.1319 15.409 11.1694 15.3073 12.1122 14.9187C13.055 14.53 13.8608 13.8718 14.4277 13.0274C14.9947 12.1829 15.2973 11.1902 15.2973 10.1745C15.2973 8.81266 14.7537 7.50655 13.7861 6.54356C12.8185 5.58056 11.5061 5.03955 10.1377 5.03955ZM10.1377 13.5077C9.47526 13.5077 8.82773 13.3122 8.27697 12.946C7.7262 12.5797 7.29693 12.0592 7.04344 11.4501C6.78995 10.841 6.72362 10.1708 6.85285 9.52427C6.98208 8.8777 7.30106 8.28379 7.76945 7.81763C8.23783 7.35148 8.8346 7.03403 9.48427 6.90542C10.134 6.7768 10.8074 6.84281 11.4193 7.09509C12.0313 7.34737 12.5544 7.77459 12.9224 8.32273C13.2904 8.87087 13.4868 9.51531 13.4868 10.1745C13.4868 11.0586 13.134 11.9064 12.5059 12.5315C11.8778 13.1565 11.0259 13.5077 10.1377 13.5077Z" fill="#E7E7E7"/>
<path d="M15.5026 6.03661C16.1685 6.03661 16.7083 5.49937 16.7083 4.83666C16.7083 4.17395 16.1685 3.63672 15.5026 3.63672C14.8367 3.63672 14.2969 4.17395 14.2969 4.83666C14.2969 5.49937 14.8367 6.03661 15.5026 6.03661Z" fill="#E7E7E7"/>
</svg>
