<svg width="20" height="19" viewBox="0 0 20 19" fill="none" xmlns="http://www.w3.org/2000/svg">
<path fill-rule="evenodd" clip-rule="evenodd" d="M10.3693 0.174805C5.04321 0.174805 0.758301 4.43925 0.758301 9.73991C0.758301 13.9645 3.52147 17.5514 7.32582 18.8268C7.80637 18.9065 7.96656 18.6275 7.96656 18.3485C7.96656 18.1094 7.96656 17.5116 7.96656 16.7145C5.28348 17.3123 4.72284 15.4391 4.72284 15.4391C4.28234 14.3232 3.6416 14.0442 3.6416 14.0442C2.76059 13.4464 3.72169 13.4464 3.72169 13.4464C4.6828 13.5261 5.20339 14.4428 5.20339 14.4428C6.04436 15.9174 7.44596 15.479 8.0066 15.2398C8.08669 14.6022 8.32697 14.2036 8.60729 13.9645C6.48486 13.7254 4.24229 12.8884 4.24229 9.2218C4.24229 8.18558 4.6027 7.30878 5.24344 6.67111C5.16335 6.43198 4.80293 5.47547 5.32353 4.12041C5.32353 4.12041 6.12445 3.88128 7.96656 5.11678C8.72743 4.9175 9.56839 4.79794 10.3693 4.79794C11.1702 4.79794 12.0112 4.9175 12.7721 5.11678C14.6142 3.88128 15.4151 4.12041 15.4151 4.12041C15.9357 5.43561 15.6153 6.39212 15.4952 6.67111C16.0959 7.34863 16.4963 8.18558 16.4963 9.2218C16.4963 12.8884 14.2538 13.6855 12.0913 13.9246C12.4517 14.2036 12.732 14.8014 12.732 15.6782C12.732 16.9536 12.732 17.9898 12.732 18.3087C12.732 18.5478 12.8922 18.8666 13.4128 18.7869C17.2172 17.5514 19.9803 13.9645 19.9803 9.73991C19.9803 4.43925 15.6954 0.174805 10.3693 0.174805Z" fill="#E7E7E7"/>
</svg>
